<svg width="36" height="31" viewBox="0 0 36 31" fill="none" xmlns="http://www.w3.org/2000/svg">
<path id="cart.fill" d="M0 1.47693C0 2.28536 0.681583 2.96941 1.45611 2.96941H6.30465L8.70568 19.4178C9.04647 21.7653 10.2857 23.1956 12.6558 23.1956H30.6867C31.4148 23.1956 32.0809 22.6204 32.0809 21.7964C32.0809 20.988 31.4148 20.4127 30.6867 20.4127H13.012C12.2685 20.4127 11.8038 19.8997 11.6954 19.1068L11.4475 17.49H30.8107C33.1807 17.49 34.4355 16.0441 34.7762 13.681L35.938 5.89218C35.969 5.69007 36 5.42578 36 5.25476C36 4.33751 35.3649 3.71565 34.296 3.71565H9.48021L9.23236 2.03661C9.03098 0.684052 8.48881 0 6.76936 0H1.45611C0.681583 0 0 0.684052 0 1.47693ZM11.2151 28.2793C11.2151 29.7874 12.4234 31 13.926 31C15.4286 31 16.6368 29.7874 16.6368 28.2793C16.6368 26.7713 15.4286 25.5587 13.926 25.5587C12.4234 25.5587 11.2151 26.7713 11.2151 28.2793ZM25.5129 28.2793C25.5129 29.7874 26.7367 31 28.2392 31C29.7418 31 30.9346 29.7874 30.9346 28.2793C30.9346 26.7713 29.7418 25.5587 28.2392 25.5587C26.7367 25.5587 25.5129 26.7713 25.5129 28.2793Z" fill="#121212"/>
</svg>
