<svg width="13" height="17" viewBox="0 0 13 17" fill="none" xmlns="http://www.w3.org/2000/svg">
<g id="Coffee">
<path id="Rectangle 74" d="M2.07422 7.02539H10.9234L10.3551 13.8459C10.2595 14.9926 9.30091 15.8746 8.15023 15.8746H4.84742C3.69674 15.8746 2.73815 14.9926 2.64259 13.8459L2.07422 7.02539Z" stroke="#F9F9F9" stroke-width="0.689429"/>
<circle id="Ellipse 33" cx="1.47487" cy="1.47487" r="1.47487" transform="matrix(-1 0 0 1 7.97461 9.9751)" stroke="#F9F9F9" stroke-width="0.689429"/>
<path id="Rectangle 75" d="M0.599609 5.55066C0.599609 4.73605 1.25998 4.07568 2.07459 4.07568H10.9245C11.7391 4.07568 12.3995 4.73605 12.3995 5.55066V5.55066C12.3995 6.36527 11.7391 7.02564 10.9245 7.02564H2.07459C1.25998 7.02564 0.599609 6.36527 0.599609 5.55066V5.55066Z" stroke="#F9F9F9" stroke-width="0.689429"/>
<path id="Rectangle 76" d="M2.07422 2.60047C2.07422 1.78586 2.73459 1.12549 3.5492 1.12549H9.44845C10.2631 1.12549 10.9234 1.78586 10.9234 2.60047V3.33774C10.9234 3.74504 10.5932 4.07523 10.1859 4.07523H2.81171C2.4044 4.07523 2.07422 3.74504 2.07422 3.33773V2.60047Z" stroke="#F9F9F9" stroke-width="0.689429"/>
</g>
</svg>
