<svg width="27" height="27" viewBox="0 0 27 27" fill="none" xmlns="http://www.w3.org/2000/svg">
<g id="Iconex/Light/Coins">
<g id="Coins">
<path id="Vector" d="M21.373 7.3125C21.373 8.8658 17.8473 10.125 13.498 10.125C9.1488 10.125 5.62305 8.8658 5.62305 7.3125M21.373 7.3125C21.373 5.7592 17.8473 4.5 13.498 4.5C9.1488 4.5 5.62305 5.7592 5.62305 7.3125M21.373 7.3125V20.8125C21.373 22.3658 17.8473 23.625 13.498 23.625C9.1488 23.625 5.62305 22.3658 5.62305 20.8125V7.3125M21.373 11.8125C21.373 13.3658 17.8473 14.625 13.498 14.625C9.1488 14.625 5.62305 13.3658 5.62305 11.8125M21.373 16.3125C21.373 17.8658 17.8473 19.125 13.498 19.125C9.1488 19.125 5.62305 17.8658 5.62305 16.3125" stroke="#17244A" stroke-width="1.4"/>
</g>
</g>
</svg>
