<?xml version="1.0" standalone="no"?>
<!DOCTYPE svg PUBLIC "-//W3C//DTD SVG 20010904//EN"
 "http://www.w3.org/TR/2001/REC-SVG-20010904/DTD/svg10.dtd">
<svg version="1.0" xmlns="http://www.w3.org/2000/svg"
 width="3746.000000pt" height="3243.000000pt" viewBox="0 0 3746.000000 3243.000000"
 preserveAspectRatio="xMidYMid meet">

<g transform="translate(0.000000,3243.000000) scale(0.100000,-0.100000)"
fill="#000000" stroke="none">
<path d="M24620 29980 c0 -13 -7 -20 -20 -20 -11 0 -20 -6 -20 -14 0 -8 -15
-17 -35 -20 -21 -4 -35 -13 -35 -21 0 -10 -11 -15 -35 -15 -28 0 -35 -4 -35
-20 0 -15 -7 -20 -25 -20 -15 0 -25 -6 -25 -14 0 -8 -13 -17 -30 -21 -16 -4
-30 -13 -30 -21 0 -10 -12 -14 -40 -14 -33 0 -40 -3 -40 -20 0 -13 -7 -20 -20
-20 -11 0 -20 -7 -20 -15 0 -8 -14 -17 -35 -21 -20 -3 -35 -12 -35 -20 0 -9
-12 -14 -35 -14 -28 0 -35 -4 -35 -20 0 -16 -7 -20 -34 -20 -25 0 -35 -5 -39
-20 -3 -11 -12 -20 -21 -20 -9 0 -16 -7 -16 -15 0 -10 -10 -15 -34 -15 -25 0
-35 -5 -39 -20 -4 -15 -14 -20 -41 -20 -29 0 -36 -4 -36 -20 0 -13 -7 -20 -20
-20 -11 0 -20 -7 -20 -15 0 -10 -11 -15 -35 -15 -28 0 -35 -4 -35 -20 0 -16
-7 -20 -35 -20 -28 0 -35 -4 -35 -20 0 -13 -7 -20 -20 -20 -11 0 -20 -7 -20
-15 0 -11 -11 -15 -36 -15 -27 0 -37 -5 -41 -20 -4 -15 -14 -20 -39 -20 -27 0
-34 -4 -34 -20 0 -16 -7 -20 -35 -20 -24 0 -35 -5 -35 -15 0 -8 -7 -15 -16
-15 -9 0 -18 -9 -21 -20 -4 -15 -14 -20 -39 -20 -27 0 -34 -4 -34 -20 0 -13
-7 -20 -20 -20 -11 0 -20 -6 -20 -14 0 -8 -15 -17 -35 -20 -21 -4 -35 -13 -35
-21 0 -10 -11 -15 -34 -15 -25 0 -35 -5 -39 -20 -3 -12 -14 -20 -26 -20 -12 0
-21 -6 -21 -15 0 -8 -14 -17 -35 -21 -20 -3 -35 -12 -35 -20 0 -9 -12 -14 -35
-14 -28 0 -35 -4 -35 -20 0 -16 -7 -20 -34 -20 -25 0 -35 -5 -39 -20 -3 -11
-12 -20 -21 -20 -9 0 -16 -7 -16 -15 0 -10 -10 -15 -34 -15 -25 0 -35 -5 -39
-20 -4 -14 -14 -20 -35 -20 -21 0 -31 -6 -35 -20 -3 -12 -14 -20 -26 -20 -12
0 -21 -6 -21 -15 0 -10 -11 -15 -35 -15 -28 0 -35 -4 -35 -20 0 -16 -7 -20
-35 -20 -28 0 -35 -4 -35 -20 0 -13 -7 -20 -20 -20 -11 0 -20 -7 -20 -15 0
-10 -11 -15 -35 -15 -28 0 -35 -4 -35 -20 0 -16 -7 -20 -34 -20 -25 0 -35 -5
-39 -20 -4 -15 -14 -20 -41 -20 -25 0 -36 -4 -36 -15 0 -8 -7 -15 -16 -15 -9
0 -18 -9 -21 -20 -4 -15 -14 -20 -39 -20 -27 0 -34 -4 -34 -20 0 -16 -7 -20
-35 -20 -25 0 -35 -4 -35 -16 0 -9 -9 -18 -20 -21 -11 -3 -20 -12 -20 -19 0
-9 -12 -14 -35 -14 -28 0 -35 -4 -35 -20 0 -16 -7 -20 -35 -20 -24 0 -35 -5
-35 -15 0 -9 -9 -15 -21 -15 -12 0 -23 -8 -26 -20 -4 -15 -14 -20 -39 -20 -27
0 -34 -4 -34 -20 0 -16 -7 -20 -35 -20 -25 0 -35 -4 -35 -16 0 -9 -9 -18 -20
-21 -11 -3 -20 -12 -20 -19 0 -9 -12 -14 -35 -14 -28 0 -35 -4 -35 -20 0 -16
-7 -20 -34 -20 -25 0 -35 -5 -39 -20 -3 -12 -14 -20 -26 -20 -12 0 -21 -6 -21
-15 0 -10 -11 -15 -35 -15 -28 0 -35 -4 -35 -20 0 -16 -7 -20 -35 -20 -28 0
-35 -4 -35 -20 0 -13 -7 -20 -20 -20 -11 0 -20 -7 -20 -15 0 -10 -11 -15 -35
-15 -28 0 -35 -4 -35 -20 0 -16 -7 -20 -34 -20 -25 0 -35 -5 -39 -20 -4 -15
-14 -20 -36 -20 -21 0 -31 -5 -31 -15 0 -9 -9 -15 -21 -15 -12 0 -23 -8 -26
-20 -4 -15 -14 -20 -39 -20 -27 0 -34 -4 -34 -20 0 -16 -7 -20 -35 -20 -24 0
-35 -5 -35 -15 0 -8 -9 -15 -20 -15 -13 0 -20 -7 -20 -20 0 -16 -7 -20 -35
-20 -28 0 -35 -4 -35 -20 0 -16 -7 -20 -35 -20 -24 0 -35 -5 -35 -15 0 -8 -9
-15 -20 -15 -13 0 -20 -7 -20 -20 0 -17 -7 -20 -40 -20 -33 0 -40 -3 -40 -20
0 -16 -7 -20 -35 -20 -24 0 -35 -5 -35 -15 0 -8 -7 -15 -16 -15 -9 0 -18 -9
-21 -20 -4 -15 -14 -20 -39 -20 -27 0 -34 -4 -34 -20 0 -16 -7 -20 -35 -20
-23 0 -35 -5 -35 -14 0 -8 -15 -17 -35 -20 -21 -4 -35 -13 -35 -21 0 -8 -8
-15 -19 -15 -10 0 -21 -9 -24 -20 -4 -15 -14 -20 -41 -20 -29 0 -36 -4 -36
-20 0 -16 -7 -20 -35 -20 -24 0 -35 -5 -35 -15 0 -8 -9 -15 -20 -15 -13 0 -20
-7 -20 -20 0 -16 -7 -20 -35 -20 -24 0 -35 -5 -35 -15 0 -8 -14 -17 -35 -21
-20 -3 -35 -12 -35 -20 0 -8 -9 -14 -21 -14 -12 0 -23 -8 -26 -20 -4 -15 -14
-20 -39 -20 -23 0 -34 -5 -34 -15 0 -8 -14 -17 -35 -21 -20 -3 -35 -12 -35
-20 0 -8 -9 -14 -20 -14 -13 0 -20 -7 -20 -20 0 -16 -7 -20 -35 -20 -28 0 -35
-4 -35 -20 0 -16 -7 -20 -35 -20 -24 0 -35 -5 -35 -15 0 -8 -9 -15 -20 -15
-13 0 -20 -7 -20 -20 0 -16 -7 -20 -34 -20 -25 0 -35 -5 -39 -20 -4 -15 -14
-20 -36 -20 -21 0 -31 -5 -31 -15 0 -8 -9 -15 -20 -15 -11 0 -23 -7 -26 -15
-3 -8 -21 -17 -40 -21 -19 -3 -34 -12 -34 -20 0 -7 -16 -16 -35 -20 -19 -3
-35 -12 -35 -19 0 -7 -16 -16 -35 -19 -21 -4 -35 -13 -35 -21 0 -8 -8 -15 -19
-15 -10 0 -21 -9 -24 -20 -4 -15 -14 -20 -36 -20 -20 0 -31 -5 -31 -14 0 -9
-15 -17 -40 -21 -25 -4 -40 -12 -40 -21 0 -8 -9 -14 -20 -14 -13 0 -20 -7 -20
-20 0 -16 -7 -20 -35 -20 -28 0 -35 -4 -35 -20 0 -16 -7 -20 -35 -20 -24 0
-35 -5 -35 -15 0 -8 -9 -15 -20 -15 -13 0 -20 -7 -20 -20 0 -16 -7 -20 -35
-20 -23 0 -35 -5 -35 -14 0 -8 -15 -17 -35 -20 -21 -4 -35 -13 -35 -21 0 -11
-12 -15 -40 -15 -33 0 -40 -3 -40 -20 0 -13 -7 -20 -20 -20 -13 0 -20 -7 -20
-20 0 -16 -7 -20 -35 -20 -24 0 -35 -5 -35 -15 0 -8 -9 -15 -20 -15 -11 0 -20
-7 -20 -15 0 -8 -14 -17 -34 -20 -22 -5 -36 -14 -39 -26 -4 -14 -14 -19 -36
-19 -21 0 -31 -5 -31 -15 0 -9 -9 -15 -21 -15 -12 0 -23 -8 -26 -20 -4 -15
-14 -20 -39 -20 -23 0 -34 -5 -34 -15 0 -8 -14 -17 -35 -21 -19 -3 -35 -12
-35 -19 0 -7 -16 -16 -35 -19 -21 -4 -35 -13 -35 -21 0 -8 -9 -15 -20 -15 -11
0 -20 -7 -20 -15 0 -8 -14 -17 -34 -20 -22 -5 -36 -14 -39 -26 -4 -14 -14 -19
-36 -19 -21 0 -31 -5 -31 -15 0 -8 -8 -15 -19 -15 -10 0 -21 -9 -24 -20 -4
-15 -14 -20 -41 -20 -25 0 -36 -5 -36 -15 0 -8 -14 -17 -35 -21 -20 -3 -35
-12 -35 -20 0 -8 -9 -14 -20 -14 -11 0 -20 -7 -20 -15 0 -8 -14 -17 -35 -21
-19 -3 -35 -12 -35 -19 0 -7 -16 -16 -35 -19 -21 -4 -35 -13 -35 -21 0 -10
-11 -15 -34 -15 -25 0 -35 -5 -39 -20 -3 -12 -14 -20 -26 -20 -12 0 -21 -6
-21 -15 0 -8 -14 -17 -35 -21 -20 -3 -35 -12 -35 -20 0 -9 -12 -14 -35 -14
-28 0 -35 -4 -35 -20 0 -13 -7 -20 -20 -20 -13 0 -20 -7 -20 -20 0 -16 -7 -20
-35 -20 -23 0 -35 -5 -35 -14 0 -8 -15 -17 -35 -20 -21 -4 -35 -13 -35 -21 0
-9 -10 -15 -25 -15 -15 0 -25 -6 -25 -15 0 -8 -14 -17 -35 -21 -19 -3 -35 -12
-35 -19 0 -7 -16 -16 -35 -19 -21 -4 -35 -13 -35 -21 0 -8 -9 -15 -20 -15 -11
0 -20 -7 -20 -15 0 -8 -14 -17 -35 -21 -20 -3 -35 -12 -35 -20 0 -9 -12 -14
-35 -14 -28 0 -35 -4 -35 -20 0 -15 -7 -20 -25 -20 -15 0 -25 -6 -25 -15 0 -8
-14 -17 -35 -21 -19 -3 -35 -12 -35 -20 0 -7 -16 -16 -35 -20 -20 -3 -35 -12
-35 -20 0 -8 -9 -14 -20 -14 -11 0 -20 -7 -20 -15 0 -8 -14 -17 -35 -21 -19
-3 -35 -12 -35 -19 0 -7 -16 -16 -35 -19 -21 -4 -35 -13 -35 -21 0 -10 -11
-15 -35 -15 -28 0 -35 -4 -35 -20 0 -15 -7 -20 -25 -20 -15 0 -25 -6 -25 -15
0 -8 -14 -17 -35 -21 -20 -3 -35 -12 -35 -20 0 -9 -12 -14 -35 -14 -28 0 -35
-4 -35 -20 0 -13 -7 -20 -20 -20 -11 0 -20 -7 -20 -15 0 -8 -14 -17 -35 -21
-20 -3 -35 -12 -35 -20 0 -8 -9 -14 -20 -14 -20 0 -20 -7 -20 -397 0 -219 3
-408 6 -420 l6 -23 859 0 c757 0 859 2 859 15 0 10 11 15 35 15 28 0 35 4 35
20 0 13 7 20 20 20 11 0 20 6 20 14 0 9 15 17 40 21 25 4 40 12 40 21 0 9 11
14 29 14 20 0 30 6 34 20 3 12 14 20 26 20 12 0 21 6 21 15 0 8 14 17 35 21
20 3 35 12 35 20 0 8 9 14 20 14 11 0 20 7 20 15 0 8 14 17 35 21 25 4 35 11
35 25 0 15 7 19 35 19 24 0 35 5 35 15 0 8 9 15 20 15 11 0 20 7 20 15 0 8 14
17 34 20 22 5 36 14 39 26 4 14 14 19 36 19 21 0 31 5 31 15 0 9 9 15 25 15
18 0 25 5 25 20 0 16 7 20 35 20 28 0 35 4 35 20 0 16 7 20 35 20 28 0 35 4
35 20 0 13 7 20 20 20 11 0 20 7 20 15 0 10 11 15 35 15 28 0 35 4 35 20 0 16
7 20 35 20 24 0 35 5 35 15 0 8 9 15 20 15 13 0 20 7 20 20 0 16 7 20 34 20
25 0 35 5 39 20 4 15 14 20 41 20 24 0 36 5 36 14 0 7 9 16 20 19 11 3 20 12
20 21 0 12 10 16 35 16 28 0 35 4 35 20 0 13 7 20 20 20 11 0 20 7 20 15 0 8
14 17 35 21 20 3 35 12 35 20 0 9 12 14 35 14 28 0 35 4 35 20 0 13 7 20 20
20 11 0 20 7 20 15 0 8 14 17 35 21 19 3 35 12 35 19 0 8 17 16 40 20 25 4 40
12 40 21 0 8 9 14 20 14 11 0 20 7 20 15 0 8 14 17 35 21 19 3 35 12 35 19 0
7 16 16 35 19 21 4 35 13 35 21 0 8 9 15 20 15 11 0 20 7 20 15 0 8 14 17 35
21 19 3 35 12 35 19 0 7 16 16 35 19 21 4 35 13 35 21 0 8 8 15 19 15 10 0 21
9 24 20 4 15 14 20 36 20 21 0 31 5 31 15 0 9 9 15 21 15 12 0 23 8 26 20 4
15 14 20 39 20 27 0 34 4 34 20 0 16 7 20 35 20 24 0 35 5 35 15 0 8 9 15 20
15 13 0 20 7 20 20 0 16 7 20 35 20 28 0 35 4 35 20 0 16 7 20 34 20 25 0 35
5 39 20 3 11 12 20 21 20 9 0 16 7 16 15 0 10 11 15 35 15 28 0 35 4 35 20 0
16 7 20 34 20 25 0 35 5 39 20 3 12 14 20 26 20 12 0 21 6 21 15 0 10 11 15
35 15 28 0 35 4 35 20 0 16 7 20 34 20 25 0 35 5 39 20 3 11 12 20 21 20 9 0
16 7 16 15 0 10 11 15 35 15 28 0 35 4 35 20 0 16 7 20 34 20 25 0 35 5 39 20
3 11 12 20 21 20 9 0 16 7 16 15 0 10 10 15 34 15 25 0 35 5 39 20 3 12 14 20
26 20 12 0 21 6 21 15 0 8 14 17 35 21 20 3 35 12 35 20 0 9 12 14 35 14 28 0
35 4 35 20 0 13 7 20 20 20 13 0 20 7 20 20 0 16 7 20 35 20 23 0 35 5 35 14
0 8 15 17 35 20 21 4 35 13 35 21 0 8 9 15 20 15 11 0 20 6 20 14 0 8 15 17
35 20 20 4 35 13 35 21 0 8 16 16 40 20 25 4 40 12 40 21 0 8 9 14 20 14 13 0
20 7 20 20 0 16 7 20 35 20 23 0 35 5 35 14 0 7 9 16 20 19 11 3 20 12 20 21
0 12 10 16 35 16 28 0 35 4 35 20 0 16 7 20 35 20 24 0 35 5 35 15 0 8 9 15
20 15 13 0 20 7 20 20 0 16 7 20 34 20 25 0 35 5 39 20 4 15 14 20 41 20 29 0
36 4 36 20 0 13 7 20 20 20 11 0 20 7 20 15 0 10 11 15 35 15 28 0 35 4 35 20
0 16 7 20 35 20 28 0 35 4 35 20 0 13 7 20 20 20 11 0 20 7 20 15 0 10 11 15
35 15 28 0 35 4 35 20 0 16 7 20 34 20 25 0 35 5 39 20 3 11 12 20 21 20 9 0
16 7 16 15 0 11 11 15 36 15 27 0 37 5 41 20 4 15 14 20 39 20 27 0 34 4 34
20 0 13 7 20 20 20 11 0 20 7 20 15 0 10 11 15 35 15 28 0 35 4 35 20 0 13 7
20 20 20 11 0 20 7 20 15 0 8 14 17 35 21 19 3 35 12 35 19 0 7 16 16 35 19
21 4 35 13 35 21 0 8 8 15 19 15 10 0 21 9 24 20 4 15 14 20 36 20 20 0 31 5
31 14 0 8 15 17 35 20 21 4 35 13 35 21 0 9 10 15 25 15 15 0 25 6 25 15 0 8
14 17 35 21 19 3 35 12 35 19 0 7 16 16 35 19 21 4 35 13 35 21 0 8 9 15 20
15 13 0 20 7 20 20 0 16 7 20 35 20 28 0 35 4 35 20 0 16 7 20 35 20 24 0 35
5 35 15 0 8 8 15 19 15 10 0 21 9 24 20 4 15 14 20 41 20 29 0 36 4 36 20 0
13 7 20 20 20 11 0 20 7 20 15 0 10 11 15 35 15 28 0 35 4 35 20 0 16 7 20 35
20 25 0 35 4 35 16 0 9 9 18 20 21 11 3 20 12 20 19 0 9 12 14 35 14 28 0 35
4 35 20 0 16 7 20 35 20 25 0 35 4 35 16 0 9 9 18 20 21 11 3 20 12 20 19 0 9
12 14 34 14 25 0 35 5 39 20 4 15 14 20 41 20 29 0 36 4 36 20 0 13 7 20 20
20 11 0 20 6 20 14 0 8 15 17 35 20 21 4 35 13 35 21 0 10 11 15 35 15 28 0
35 4 35 20 0 13 7 20 20 20 11 0 20 6 20 14 0 8 15 17 35 20 21 4 35 13 35 21
0 10 11 15 35 15 28 0 35 4 35 20 0 15 7 20 25 20 15 0 25 6 25 15 0 8 14 17
35 21 20 3 35 12 35 20 0 8 9 14 20 14 11 0 20 7 20 15 0 8 14 17 35 21 25 4
35 11 35 25 0 15 7 19 35 19 24 0 35 5 35 15 0 8 9 15 20 15 13 0 20 7 20 20
0 16 7 20 35 20 24 0 35 5 35 14 0 10 15 17 44 21 54 9 106 -2 106 -21 0 -9
11 -14 35 -14 28 0 35 -4 35 -20 0 -17 7 -20 40 -20 27 0 40 -4 40 -14 0 -7 9
-16 20 -19 11 -3 20 -12 20 -21 0 -12 10 -16 35 -16 28 0 35 -4 35 -20 0 -13
7 -20 20 -20 11 0 20 -6 20 -14 0 -8 15 -17 35 -20 21 -4 35 -13 35 -21 0 -10
11 -15 35 -15 28 0 35 -4 35 -20 0 -13 7 -20 20 -20 11 0 20 -6 20 -14 0 -8
15 -17 35 -20 19 -4 35 -13 35 -20 0 -8 16 -17 35 -20 21 -4 35 -13 35 -21 0
-9 10 -15 25 -15 15 0 25 -6 25 -15 0 -8 14 -17 35 -21 19 -3 35 -12 35 -19 0
-7 16 -16 35 -19 21 -4 35 -13 35 -21 0 -8 9 -15 20 -15 13 0 20 -7 20 -20 0
-16 7 -20 35 -20 23 0 35 -5 35 -14 0 -8 15 -17 35 -20 21 -4 35 -13 35 -21 0
-8 8 -15 19 -15 10 0 21 -9 24 -20 4 -15 14 -20 36 -20 20 0 31 -5 31 -14 0
-8 15 -17 35 -20 21 -4 35 -13 35 -21 0 -9 10 -15 25 -15 18 0 25 -5 25 -20 0
-16 7 -20 35 -20 24 0 35 -5 35 -15 0 -8 7 -15 16 -15 9 0 18 -9 21 -20 4 -15
14 -20 39 -20 27 0 34 -4 34 -20 0 -16 7 -20 35 -20 24 0 35 -5 35 -15 0 -8 9
-15 20 -15 13 0 20 -7 20 -20 0 -16 7 -20 35 -20 28 0 35 -4 35 -20 0 -13 7
-20 20 -20 11 0 20 -6 20 -14 0 -9 15 -17 40 -21 25 -4 40 -12 40 -21 0 -9 12
-14 35 -14 28 0 35 -4 35 -20 0 -16 7 -20 35 -20 28 0 35 -4 35 -20 0 -13 7
-20 20 -20 11 0 20 -7 20 -15 0 -10 11 -15 35 -15 28 0 35 -4 35 -20 0 -16 7
-20 35 -20 24 0 35 -5 35 -15 0 -8 9 -15 20 -15 13 0 20 -7 20 -20 0 -16 7
-20 35 -20 28 0 35 -4 35 -20 0 -15 7 -20 25 -20 15 0 25 -6 25 -15 0 -8 14
-17 35 -21 19 -3 35 -12 35 -19 0 -7 16 -16 35 -19 21 -4 35 -13 35 -21 0 -8
9 -15 20 -15 11 0 20 -7 20 -15 0 -8 14 -17 35 -21 19 -3 35 -12 35 -19 0 -7
16 -16 35 -19 21 -4 35 -13 35 -21 0 -8 9 -15 20 -15 11 0 20 -7 20 -15 0 -8
14 -17 35 -21 19 -3 35 -12 35 -19 0 -8 17 -16 40 -20 25 -4 40 -12 40 -21 0
-8 9 -14 20 -14 13 0 20 -7 20 -20 0 -16 7 -20 35 -20 24 0 35 -5 35 -15 0 -8
14 -17 35 -21 20 -3 35 -12 35 -20 0 -8 9 -14 20 -14 13 0 20 -7 20 -20 0 -16
7 -20 34 -20 25 0 35 -5 39 -20 4 -15 14 -20 36 -20 21 0 31 -5 31 -15 0 -8 9
-15 20 -15 13 0 20 -7 20 -20 0 -17 7 -20 40 -20 33 0 40 -3 40 -20 0 -13 7
-20 20 -20 11 0 20 -7 20 -15 0 -10 11 -15 35 -15 28 0 35 -4 35 -20 0 -16 7
-20 35 -20 28 0 35 -4 35 -20 0 -13 7 -20 20 -20 11 0 20 -7 20 -15 0 -10 11
-15 35 -15 28 0 35 -4 35 -20 0 -16 7 -20 35 -20 28 0 35 -4 35 -20 0 -13 7
-20 20 -20 11 0 20 -7 20 -15 0 -10 11 -15 35 -15 28 0 35 -4 35 -20 0 -16 7
-20 36 -20 27 0 37 -5 41 -20 3 -11 14 -20 24 -20 11 0 19 -7 19 -15 0 -10 11
-15 35 -15 28 0 35 -4 35 -19 0 -14 10 -21 35 -25 21 -4 35 -13 35 -21 0 -8 9
-15 20 -15 11 0 20 -6 20 -14 0 -8 15 -17 35 -20 21 -4 35 -13 35 -21 0 -8 9
-15 20 -15 13 0 20 -7 20 -20 0 -16 7 -20 35 -20 23 0 35 -5 35 -14 0 -8 15
-17 35 -20 21 -4 35 -13 35 -21 0 -9 10 -15 25 -15 18 0 25 -5 25 -20 0 -16 7
-20 35 -20 23 0 35 -5 35 -14 0 -8 15 -17 35 -20 21 -4 35 -13 35 -21 0 -8 9
-15 20 -15 13 0 20 -7 20 -20 0 -16 7 -20 35 -20 23 0 35 -5 35 -14 0 -7 9
-16 20 -19 11 -3 20 -12 20 -21 0 -12 10 -16 35 -16 28 0 35 -4 35 -20 0 -16
7 -20 34 -20 25 0 35 -5 39 -20 4 -15 14 -20 36 -20 21 0 31 -5 31 -15 0 -9 9
-15 21 -15 12 0 23 -8 26 -20 4 -15 14 -20 39 -20 27 0 34 -4 34 -20 0 -16 7
-20 35 -20 24 0 35 -5 35 -15 0 -8 9 -15 20 -15 13 0 20 -7 20 -20 0 -16 7
-20 35 -20 25 0 35 -4 35 -16 0 -9 9 -18 20 -21 11 -3 20 -12 20 -19 0 -9 12
-14 35 -14 28 0 35 -4 35 -20 0 -16 7 -20 36 -20 27 0 37 -5 41 -20 3 -11 14
-20 24 -20 11 0 19 -6 19 -14 0 -8 15 -17 35 -20 21 -4 35 -13 35 -21 0 -10
11 -15 35 -15 28 0 35 -4 35 -20 0 -13 7 -20 20 -20 11 0 20 -6 20 -14 0 -8
15 -17 35 -20 19 -4 35 -13 35 -20 0 -8 16 -17 35 -20 21 -4 35 -13 35 -21 0
-8 9 -15 20 -15 11 0 20 -7 20 -15 0 -11 11 -15 36 -15 27 0 37 -5 41 -19 3
-11 13 -21 24 -24 10 -3 19 -12 19 -21 0 -12 10 -16 35 -16 24 0 35 -5 35 -15
0 -8 14 -17 35 -21 20 -3 35 -12 35 -20 0 -8 9 -14 20 -14 13 0 20 -7 20 -20
0 -16 7 -20 35 -20 24 0 35 -5 35 -15 0 -8 14 -17 35 -21 20 -3 35 -12 35 -20
0 -8 9 -14 21 -14 12 0 23 -8 26 -20 4 -14 14 -20 34 -20 18 0 29 -5 29 -14 0
-8 15 -17 35 -20 21 -4 35 -13 35 -21 0 -9 10 -15 25 -15 18 0 25 -5 25 -20 0
-16 7 -20 35 -20 28 0 35 -4 35 -20 0 -13 7 -20 20 -20 11 0 20 -7 20 -15 0
-10 11 -15 35 -15 28 0 35 -4 35 -20 0 -16 7 -20 35 -20 28 0 35 -4 35 -20 0
-16 7 -20 35 -20 24 0 35 -5 35 -15 0 -8 9 -15 20 -15 13 0 20 -7 20 -20 0
-17 7 -20 40 -20 33 0 40 -3 40 -20 0 -13 7 -20 20 -20 11 0 20 -7 20 -15 0
-10 10 -15 31 -15 22 0 32 -5 36 -20 4 -15 14 -20 39 -20 27 0 34 -4 34 -20 0
-13 7 -20 20 -20 11 0 20 -6 20 -14 0 -8 15 -17 35 -20 19 -4 35 -13 35 -20 0
-8 16 -17 35 -20 21 -4 35 -13 35 -21 0 -8 9 -15 20 -15 13 0 20 -7 20 -20 0
-13 7 -20 20 -20 20 0 20 -7 20 -5980 l0 -5980 845 0 c767 0 845 1 845 16 0 9
9 18 20 21 20 5 20 14 20 6369 0 5816 -1 6364 -16 6364 -9 0 -18 9 -21 20 -3
11 -14 20 -24 20 -11 0 -19 7 -19 15 0 8 -7 15 -16 15 -9 0 -18 9 -21 20 -4
15 -14 20 -39 20 -27 0 -34 4 -34 20 0 16 -7 20 -35 20 -28 0 -35 4 -35 20 0
13 -7 20 -20 20 -11 0 -20 7 -20 15 0 10 -11 15 -35 15 -28 0 -35 4 -35 20 0
16 -7 20 -34 20 -25 0 -35 5 -39 20 -4 15 -14 20 -36 20 -21 0 -31 5 -31 15 0
9 -9 15 -25 15 -18 0 -25 5 -25 20 0 16 -7 20 -35 20 -24 0 -35 5 -35 15 0 8
-14 17 -35 21 -20 3 -35 12 -35 20 0 8 -9 14 -20 14 -13 0 -20 7 -20 20 0 16
-7 20 -35 20 -28 0 -35 4 -35 20 0 16 -7 20 -35 20 -24 0 -35 5 -35 15 0 9 -9
15 -21 15 -12 0 -23 8 -26 20 -4 15 -14 20 -39 20 -27 0 -34 4 -34 20 0 16 -7
20 -35 20 -23 0 -35 5 -35 14 0 8 -15 17 -35 20 -21 4 -35 13 -35 21 0 8 -9
15 -20 15 -13 0 -20 7 -20 20 0 16 -7 20 -35 20 -24 0 -35 5 -35 15 0 8 -9 15
-20 15 -13 0 -20 7 -20 20 0 17 -7 20 -40 20 -33 0 -40 3 -40 20 0 16 -7 20
-35 20 -24 0 -35 5 -35 15 0 8 -7 15 -16 15 -9 0 -18 9 -21 20 -4 15 -14 20
-39 20 -27 0 -34 4 -34 20 0 16 -7 20 -34 20 -25 0 -35 5 -39 20 -4 15 -14 20
-36 20 -21 0 -31 5 -31 15 0 8 -9 15 -20 15 -13 0 -20 7 -20 20 0 17 -7 20
-40 20 -28 0 -40 4 -40 15 0 8 -14 17 -35 21 -20 3 -35 12 -35 20 0 8 -9 14
-20 14 -13 0 -20 7 -20 20 0 16 -7 20 -35 20 -28 0 -35 4 -35 20 0 16 -7 20
-35 20 -24 0 -35 5 -35 15 0 8 -9 15 -20 15 -13 0 -20 7 -20 20 0 16 -7 20
-36 20 -27 0 -37 5 -41 20 -4 15 -14 20 -39 20 -24 0 -34 5 -34 15 0 8 -9 15
-20 15 -13 0 -20 7 -20 20 0 16 -7 20 -35 20 -28 0 -35 4 -35 20 0 16 -7 20
-35 20 -23 0 -35 5 -35 14 0 8 -15 17 -35 20 -21 4 -35 13 -35 21 0 8 -8 15
-19 15 -10 0 -21 9 -24 20 -4 15 -14 20 -41 20 -24 0 -36 5 -36 14 0 8 -13 17
-30 21 -16 4 -30 13 -30 21 0 8 -10 14 -25 14 -18 0 -25 5 -25 20 0 16 -7 20
-35 20 -23 0 -35 5 -35 14 0 8 -15 17 -35 20 -21 4 -35 13 -35 21 0 8 -9 15
-20 15 -13 0 -20 7 -20 20 0 17 -7 20 -40 20 -28 0 -40 4 -40 15 0 8 -14 17
-35 21 -20 3 -35 12 -35 20 0 8 -9 14 -20 14 -13 0 -20 7 -20 20 0 16 -7 20
-35 20 -24 0 -35 5 -35 15 0 8 -14 17 -35 21 -20 3 -35 12 -35 20 0 8 -9 14
-20 14 -13 0 -20 7 -20 20 0 16 -7 20 -35 20 -23 0 -35 5 -35 14 0 8 -15 17
-35 20 -21 4 -35 13 -35 21 0 9 -9 15 -21 15 -12 0 -23 8 -26 20 -4 15 -14 20
-39 20 -23 0 -34 5 -34 15 0 8 -14 17 -35 21 -19 3 -35 12 -35 19 0 7 -16 16
-35 19 -21 4 -35 13 -35 21 0 8 -9 15 -20 15 -13 0 -20 7 -20 20 0 16 -7 20
-35 20 -23 0 -35 5 -35 14 0 8 -15 17 -35 20 -21 4 -35 13 -35 21 0 9 -10 15
-25 15 -18 0 -25 5 -25 20 0 16 -7 20 -35 20 -24 0 -35 5 -35 15 0 8 -14 17
-35 21 -20 3 -35 12 -35 20 0 8 -9 14 -20 14 -11 0 -20 7 -20 15 0 8 -14 17
-35 21 -19 3 -35 12 -35 19 0 7 -16 16 -35 19 -21 4 -35 13 -35 21 0 8 -9 15
-19 15 -30 0 -51 11 -51 26 0 8 -10 14 -25 14 -16 0 -25 6 -25 15 0 10 -10 15
-31 15 -22 0 -32 5 -36 19 -3 12 -17 21 -39 26 -20 3 -34 12 -34 20 0 8 -9 15
-20 15 -11 0 -20 6 -20 14 0 8 -15 17 -35 20 -19 4 -35 13 -35 20 0 8 -16 17
-35 20 -21 4 -35 13 -35 21 0 9 -10 15 -25 15 -15 0 -25 6 -25 15 0 8 -14 17
-35 21 -20 3 -35 12 -35 20 0 9 -12 14 -35 14 -28 0 -35 4 -35 20 0 13 -7 20
-20 20 -11 0 -20 6 -20 14 0 8 -15 17 -35 20 -21 4 -35 13 -35 21 0 10 -11 15
-35 15 -28 0 -35 4 -35 20 0 15 -7 20 -25 20 -15 0 -25 6 -25 15 0 8 -14 17
-35 21 -19 3 -35 12 -35 19 0 7 -16 16 -35 19 -21 4 -35 13 -35 21 0 8 -9 15
-20 15 -11 0 -20 7 -20 15 0 8 -14 17 -35 21 -20 3 -35 12 -35 20 0 9 -12 14
-35 14 -28 0 -35 4 -35 20 0 16 -7 20 -34 20 -25 0 -35 5 -39 20 -3 12 -14 20
-26 20 -12 0 -21 6 -21 15 0 10 -10 15 -31 15 -22 0 -32 5 -36 20 -4 15 -14
20 -39 20 -27 0 -34 4 -34 20 0 13 -7 20 -20 20 -11 0 -20 7 -20 15 0 10 -11
15 -35 15 -28 0 -35 4 -35 19 0 14 -10 21 -35 25 -21 4 -35 13 -35 21 0 8 -9
15 -20 15 -11 0 -20 6 -20 14 0 9 -15 17 -40 21 -25 4 -40 12 -40 21 0 9 -11
14 -31 14 -22 0 -32 5 -36 20 -3 11 -14 20 -24 20 -11 0 -19 6 -19 14 0 8 -15
17 -35 20 -21 4 -35 13 -35 21 0 10 -11 15 -35 15 -28 0 -35 4 -35 20 0 13 -7
20 -20 20 -11 0 -20 7 -20 15 0 11 -11 15 -36 15 -27 0 -37 5 -41 20 -4 14
-14 20 -35 20 -21 0 -31 6 -35 20 -3 11 -14 20 -24 20 -11 0 -19 7 -19 15 0 8
-14 17 -35 21 -19 3 -35 12 -35 19 0 7 -16 16 -35 19 -19 4 -35 13 -35 20 0 8
-16 17 -35 20 -21 4 -35 13 -35 21 0 8 -9 15 -20 15 -11 0 -20 7 -20 15 0 11
-11 15 -36 15 -27 0 -37 5 -41 20 -4 15 -14 20 -39 20 -27 0 -34 4 -34 20 0
13 -7 20 -20 20 -11 0 -20 7 -20 15 0 10 -11 15 -35 15 -28 0 -35 4 -35 20 0
16 -7 20 -35 20 -28 0 -35 4 -35 20 0 13 -7 20 -20 20 -11 0 -20 6 -20 14 0 8
-15 17 -35 20 -21 4 -35 13 -35 21 0 10 -11 15 -36 15 -27 0 -37 5 -41 20 -3
11 -14 20 -24 20 -11 0 -19 7 -19 15 0 10 -10 15 -31 15 -22 0 -32 5 -36 20
-4 15 -14 20 -39 20 -27 0 -34 4 -34 20 0 16 -7 20 -35 20 -25 0 -35 4 -35 16
0 9 -9 18 -20 21 -11 3 -20 12 -20 19 0 9 -12 14 -36 14 -27 0 -37 5 -41 20
-3 11 -14 20 -24 20 -11 0 -19 7 -19 15 0 8 -14 17 -35 21 -20 3 -35 12 -35
20 0 9 -12 14 -35 14 -28 0 -35 4 -35 20 0 16 -7 20 -34 20 -25 0 -35 5 -39
20 -3 11 -12 20 -21 20 -9 0 -16 7 -16 15 0 10 -11 15 -35 15 -28 0 -35 4 -35
20 0 17 -7 20 -40 20 -33 0 -40 3 -40 20 0 13 -7 20 -20 20 -11 0 -20 7 -20
15 0 10 -11 15 -35 15 -28 0 -35 4 -35 20 0 16 -7 20 -35 20 -28 0 -35 4 -35
20 0 13 -7 20 -20 20 -11 0 -20 7 -20 15 0 10 -11 15 -35 15 -28 0 -35 4 -35
20 0 16 -7 20 -34 20 -25 0 -35 5 -39 20 -4 15 -14 20 -36 20 -21 0 -31 5 -31
15 0 9 -9 15 -21 15 -12 0 -23 8 -26 20 -4 15 -14 20 -39 20 -27 0 -34 4 -34
20 0 16 -7 20 -35 20 -24 0 -35 5 -35 15 0 8 -9 15 -20 15 -13 0 -20 7 -20 20
0 16 -7 20 -35 20 -28 0 -35 4 -35 20 0 16 -7 20 -34 20 -25 0 -35 5 -39 20
-3 12 -14 20 -26 20 -12 0 -21 6 -21 15 0 10 -10 15 -31 15 -22 0 -32 5 -36
20 -4 15 -14 20 -39 20 -27 0 -34 -4 -34 -20z"/>
<path d="M15710 21220 l0 -2230 -55 0 c-48 0 -55 2 -55 20 0 13 -7 20 -20 20
-11 0 -20 6 -20 14 0 8 -13 17 -30 21 -16 4 -30 13 -30 21 0 8 -9 14 -21 14
-12 0 -23 8 -26 20 -4 15 -14 20 -39 20 -27 0 -34 4 -34 20 0 13 -7 20 -20 20
-11 0 -20 6 -20 14 0 8 -15 17 -35 20 -21 4 -35 13 -35 21 0 8 -9 15 -20 15
-13 0 -20 7 -20 20 0 16 -7 20 -35 20 -24 0 -35 5 -35 15 0 10 -11 15 -35 15
-28 0 -35 4 -35 20 0 15 -7 20 -25 20 -15 0 -25 6 -25 15 0 8 -14 17 -35 21
-20 3 -35 12 -35 20 0 9 -11 14 -27 14 -43 0 -73 11 -73 26 0 8 -9 14 -19 14
-30 0 -51 11 -51 26 0 10 -12 14 -40 14 -29 0 -40 4 -40 15 0 11 -11 15 -36
15 -27 0 -37 5 -41 20 -4 17 -14 20 -54 20 -42 0 -49 3 -49 20 0 17 -7 20 -40
20 -29 0 -40 4 -40 15 0 12 -13 15 -55 15 -48 0 -55 2 -55 20 0 18 -7 20 -54
20 -64 0 -86 7 -86 26 0 10 -15 14 -60 14 -44 0 -60 4 -60 14 0 14 -67 26
-147 26 -32 0 -43 4 -43 15 0 13 -25 15 -161 15 -152 0 -161 1 -166 20 -5 19
-14 20 -239 20 -192 0 -234 -2 -234 -14 0 -20 -46 -26 -201 -26 -117 0 -139
-2 -139 -15 0 -11 -13 -15 -52 -15 -91 0 -158 -12 -158 -26 0 -11 -18 -14 -75
-14 -68 0 -75 -2 -75 -20 0 -18 -7 -20 -55 -20 -40 0 -55 -4 -55 -14 0 -16
-30 -26 -77 -26 -23 0 -33 -5 -33 -15 0 -12 -13 -15 -55 -15 -48 0 -55 -2 -55
-20 0 -18 -7 -20 -55 -20 -48 0 -55 -2 -55 -20 0 -17 -7 -20 -40 -20 -29 0
-40 -4 -40 -15 0 -10 -11 -15 -35 -15 -28 0 -35 -4 -35 -20 0 -17 -7 -20 -40
-20 -28 0 -40 -4 -40 -15 0 -8 -14 -17 -35 -21 -20 -3 -35 -12 -35 -20 0 -9
-12 -14 -35 -14 -28 0 -35 -4 -35 -20 0 -16 -7 -20 -34 -20 -25 0 -35 -5 -39
-20 -4 -15 -14 -20 -41 -20 -24 0 -36 -5 -36 -14 0 -7 -9 -16 -20 -19 -11 -3
-20 -12 -20 -21 0 -12 -10 -16 -35 -16 -28 0 -35 -4 -35 -20 0 -13 -7 -20 -20
-20 -11 0 -20 -7 -20 -15 0 -10 -10 -15 -31 -15 -22 0 -32 -5 -36 -20 -3 -11
-14 -20 -24 -20 -11 0 -19 -7 -19 -15 0 -8 -14 -17 -35 -21 -19 -3 -35 -12
-35 -19 0 -7 -9 -15 -20 -18 -11 -3 -20 -12 -20 -21 0 -9 -8 -16 -20 -16 -11
0 -20 -6 -20 -14 0 -8 -13 -17 -29 -21 -17 -3 -31 -14 -34 -26 -3 -10 -12 -19
-21 -19 -9 0 -16 -7 -16 -15 0 -8 -9 -15 -20 -15 -13 0 -20 -7 -20 -20 0 -13
-7 -20 -20 -20 -11 0 -20 -6 -20 -14 0 -7 -9 -16 -20 -19 -11 -3 -20 -12 -20
-21 0 -9 -7 -16 -15 -16 -8 0 -15 -6 -15 -14 0 -7 -9 -16 -20 -19 -11 -3 -20
-12 -20 -21 0 -9 -13 -18 -35 -22 -20 -3 -35 -12 -35 -20 0 -8 -9 -14 -20 -14
-13 0 -20 -7 -20 -20 0 -11 -7 -20 -15 -20 -8 0 -15 -9 -15 -20 0 -13 -7 -20
-20 -20 -11 0 -20 -6 -20 -14 0 -7 -9 -16 -20 -19 -11 -3 -20 -12 -20 -21 0
-9 -6 -16 -14 -16 -8 0 -17 -15 -20 -35 -4 -19 -12 -35 -19 -35 -17 0 -57 -45
-57 -64 0 -9 -8 -16 -20 -16 -11 0 -20 -7 -20 -15 0 -8 -7 -15 -15 -15 -8 0
-15 -9 -15 -20 0 -13 -7 -20 -20 -20 -13 0 -20 -7 -20 -20 0 -11 -7 -20 -15
-20 -8 0 -17 -14 -21 -35 -3 -19 -12 -35 -19 -35 -7 0 -15 -9 -18 -20 -3 -11
-12 -20 -21 -20 -9 0 -16 -8 -16 -20 0 -11 -7 -20 -15 -20 -8 0 -17 -14 -21
-35 -3 -20 -12 -35 -20 -35 -8 0 -14 -7 -14 -15 0 -8 -9 -15 -20 -15 -17 0
-20 -7 -20 -40 0 -27 -4 -40 -14 -40 -7 0 -16 -9 -19 -20 -3 -11 -12 -20 -21
-20 -12 0 -16 -10 -16 -35 0 -28 -4 -35 -20 -35 -13 0 -20 -7 -20 -20 0 -11
-7 -20 -15 -20 -8 0 -17 -14 -21 -35 -3 -20 -12 -35 -20 -35 -9 0 -14 -12 -14
-35 0 -28 -4 -35 -20 -35 -17 0 -20 -7 -20 -40 0 -28 -4 -40 -15 -40 -8 0 -17
-14 -21 -35 -3 -20 -12 -35 -20 -35 -8 0 -14 -10 -14 -24 0 -45 -13 -86 -26
-86 -9 0 -14 -12 -14 -34 0 -25 -5 -35 -20 -39 -15 -4 -20 -14 -20 -41 0 -25
-4 -36 -15 -36 -12 0 -15 -13 -15 -55 0 -48 -2 -55 -20 -55 -18 0 -20 -7 -20
-55 0 -40 -4 -55 -14 -55 -17 0 -26 -31 -26 -92 0 -34 -4 -48 -14 -48 -10 0
-16 -21 -21 -75 -5 -55 -11 -75 -21 -75 -11 0 -14 -19 -14 -90 0 -83 -1 -90
-20 -90 -19 0 -20 -7 -20 -130 0 -109 -2 -130 -15 -130 -13 0 -15 -68 -15
-550 0 -482 2 -550 15 -550 13 0 15 -21 15 -130 0 -123 1 -130 20 -130 18 0
20 -7 20 -80 0 -63 3 -80 14 -80 11 0 17 -19 22 -70 4 -46 11 -70 19 -70 8 0
14 -22 17 -66 3 -49 9 -69 21 -76 13 -7 17 -23 17 -63 0 -48 2 -55 20 -55 17
0 20 -7 20 -50 0 -38 4 -50 15 -50 11 0 15 -11 15 -40 0 -33 3 -40 20 -40 17
0 20 -7 20 -40 0 -27 4 -40 14 -40 15 0 26 -30 26 -72 0 -18 5 -28 15 -28 11
0 15 -11 15 -40 0 -33 3 -40 20 -40 16 0 20 -7 20 -35 0 -24 5 -35 15 -35 10
0 17 -14 21 -40 4 -23 12 -40 20 -40 7 0 16 -16 20 -35 3 -20 12 -35 20 -35 9
0 14 -12 14 -35 0 -28 4 -35 20 -35 13 0 20 -7 20 -20 0 -11 6 -20 14 -20 8 0
17 -15 20 -35 4 -21 13 -35 21 -35 10 0 15 -11 15 -35 0 -28 4 -35 20 -35 13
0 20 -7 20 -20 0 -11 6 -20 14 -20 8 0 17 -15 20 -35 4 -21 13 -35 21 -35 8 0
15 -8 15 -19 0 -10 9 -21 20 -24 12 -3 20 -14 20 -26 0 -12 6 -21 14 -21 8 0
17 -14 21 -30 4 -17 13 -30 21 -30 8 0 14 -9 14 -20 0 -13 7 -20 20 -20 13 0
20 -7 20 -20 0 -11 7 -20 15 -20 8 0 17 -14 21 -35 3 -19 12 -35 19 -35 7 0
15 -9 18 -20 3 -11 12 -20 21 -20 9 0 16 -7 16 -15 0 -8 7 -15 16 -15 9 0 18
-9 21 -20 3 -11 12 -20 19 -20 8 0 14 -9 14 -20 0 -13 7 -20 20 -20 13 0 20
-7 20 -20 0 -13 7 -20 20 -20 11 0 20 -7 20 -15 0 -8 7 -15 15 -15 8 0 15 -9
15 -20 0 -13 7 -20 20 -20 11 0 20 -7 20 -15 0 -8 7 -15 16 -15 9 0 18 -9 21
-20 3 -11 12 -20 19 -20 8 0 14 -9 14 -20 0 -13 7 -20 20 -20 13 0 20 -7 20
-20 0 -13 7 -20 20 -20 11 0 20 -7 20 -15 0 -8 7 -15 16 -15 9 0 18 -9 21 -20
3 -11 12 -20 19 -20 8 0 14 -6 14 -14 0 -8 15 -17 35 -20 21 -4 35 -13 35 -21
0 -8 9 -15 20 -15 13 0 20 -7 20 -20 0 -13 7 -20 20 -20 11 0 20 -6 20 -14 0
-8 15 -17 35 -20 21 -4 35 -13 35 -21 0 -8 9 -15 20 -15 13 0 20 -7 20 -19 0
-14 10 -21 35 -25 21 -4 35 -13 35 -21 0 -8 9 -15 20 -15 11 0 20 -6 20 -14 0
-8 15 -17 35 -20 21 -4 35 -13 35 -21 0 -8 9 -15 20 -15 13 0 20 -7 20 -20 0
-16 7 -20 35 -20 23 0 35 -5 35 -14 0 -8 15 -17 35 -20 21 -4 35 -13 35 -21 0
-9 10 -15 25 -15 15 0 25 -6 25 -15 0 -8 14 -17 35 -21 20 -3 35 -12 35 -20 0
-9 12 -14 35 -14 28 0 35 -4 35 -20 0 -16 7 -20 36 -20 27 0 37 -5 41 -20 4
-15 14 -20 39 -20 24 0 34 -5 34 -15 0 -10 11 -15 35 -15 28 0 35 -4 35 -20 0
-18 7 -20 55 -20 48 0 55 -2 55 -20 0 -18 7 -20 55 -20 40 0 55 -4 55 -14 0
-13 41 -26 86 -26 15 0 24 -6 24 -15 0 -12 13 -15 55 -15 48 0 55 -2 55 -20 0
-18 7 -20 75 -20 60 0 75 -3 75 -15 0 -8 10 -16 23 -17 21 -1 34 -2 120 -6 25
-1 37 -7 37 -17 0 -12 16 -15 88 -15 100 0 132 -7 132 -26 0 -12 70 -14 425
-14 355 0 425 2 425 14 0 19 32 26 133 26 67 0 87 3 87 14 0 15 43 26 105 26
25 0 45 5 47 12 3 7 32 14 76 16 62 4 72 7 72 23 0 16 8 19 55 19 42 0 55 3
55 15 0 9 9 15 24 15 45 0 86 13 86 26 0 10 15 14 55 14 48 0 55 2 55 20 0 17
7 20 40 20 27 0 40 4 40 14 0 15 30 26 73 26 17 0 27 5 27 15 0 10 11 15 35
15 28 0 35 4 35 20 0 17 7 20 40 20 33 0 40 3 40 20 0 16 7 20 35 20 24 0 35
5 35 15 0 8 9 15 20 15 11 0 20 7 20 15 0 8 14 17 35 21 19 3 35 12 35 19 0 8
17 16 40 20 23 4 40 12 40 20 0 7 16 16 35 19 21 4 35 13 35 21 0 8 9 15 20
15 11 0 20 7 20 15 0 8 14 17 35 21 20 3 35 12 35 20 0 8 9 14 20 14 13 0 20
7 20 20 0 16 7 20 35 20 28 0 35 4 35 20 0 13 7 20 20 20 11 0 20 7 20 15 0 8
14 17 35 21 20 3 35 12 35 20 0 8 9 14 20 14 14 0 20 7 20 21 0 17 4 20 23 15
12 -3 28 -6 35 -6 9 0 12 -69 12 -310 l0 -310 865 0 865 0 0 5780 0 5780 -865
0 -865 0 0 -2230z m-1920 -2980 c6 -10 35 -15 104 -18 73 -3 96 -8 96 -18 0
-10 12 -14 39 -14 57 0 101 -11 101 -25 0 -9 22 -14 66 -17 49 -3 69 -9 76
-21 6 -11 21 -17 43 -17 23 0 35 -5 35 -14 0 -13 41 -26 86 -26 14 0 24 -6 24
-14 0 -8 15 -17 35 -20 21 -4 35 -13 35 -21 0 -8 9 -15 20 -15 11 0 20 -6 20
-14 0 -9 15 -17 40 -21 23 -4 40 -12 40 -20 0 -7 14 -16 30 -20 17 -4 30 -13
30 -21 0 -8 10 -14 25 -14 16 0 25 -6 25 -15 0 -8 7 -15 15 -15 8 0 15 -8 15
-19 0 -14 10 -21 35 -25 21 -4 35 -13 35 -21 0 -8 9 -15 20 -15 12 0 20 -7 20
-16 0 -9 9 -18 20 -21 11 -3 20 -12 20 -19 0 -8 9 -14 20 -14 13 0 20 -7 20
-20 0 -11 7 -20 15 -20 9 0 18 -7 21 -15 4 -8 12 -15 20 -15 8 0 14 -9 14 -20
0 -13 7 -20 20 -20 13 0 20 -7 20 -20 0 -11 6 -20 14 -20 7 0 16 -9 19 -20 3
-11 12 -20 21 -20 9 0 16 -7 16 -15 0 -8 7 -15 16 -15 9 0 18 -9 21 -20 3 -11
11 -20 18 -20 7 0 16 -16 19 -35 4 -21 13 -35 21 -35 8 0 15 -9 15 -20 0 -13
7 -20 20 -20 16 0 20 -7 20 -35 0 -25 4 -35 16 -35 9 0 18 -9 21 -20 3 -11 12
-20 19 -20 10 0 14 -13 14 -40 0 -33 3 -40 20 -40 16 0 20 -7 20 -35 0 -24 5
-35 15 -35 8 0 17 -14 21 -35 3 -20 12 -35 20 -35 9 0 14 -12 14 -35 0 -21 6
-37 16 -43 11 -6 18 -27 22 -61 3 -34 9 -51 18 -51 8 0 16 -16 20 -40 4 -24
12 -40 20 -40 11 0 14 -17 14 -70 0 -63 2 -70 20 -70 18 0 20 -7 20 -75 0 -57
3 -75 14 -75 16 0 26 -63 26 -171 0 -64 3 -79 15 -79 13 0 15 -56 15 -440 0
-384 -2 -440 -15 -440 -12 0 -15 -16 -15 -84 0 -101 -8 -146 -26 -146 -11 0
-14 -17 -14 -67 0 -81 -8 -113 -26 -113 -10 0 -14 -15 -14 -55 0 -42 -3 -55
-15 -55 -10 0 -15 -10 -15 -32 0 -48 -10 -78 -26 -78 -10 0 -14 -15 -14 -54 0
-45 -3 -54 -20 -59 -15 -4 -20 -14 -20 -41 0 -24 -5 -36 -14 -36 -8 0 -17 -15
-20 -35 -4 -21 -13 -35 -21 -35 -10 0 -15 -11 -15 -35 0 -28 -4 -35 -20 -35
-17 0 -20 -7 -20 -40 0 -28 -4 -40 -15 -40 -8 0 -17 -14 -21 -35 -3 -20 -12
-35 -20 -35 -8 0 -14 -9 -14 -20 0 -13 -7 -20 -20 -20 -13 0 -20 -7 -20 -20 0
-11 -7 -20 -15 -20 -8 0 -17 -14 -21 -35 -3 -20 -12 -35 -20 -35 -8 0 -14 -7
-14 -16 0 -9 -9 -18 -20 -21 -11 -3 -20 -12 -20 -19 0 -8 -7 -14 -15 -14 -8 0
-15 -9 -15 -20 0 -13 -7 -20 -20 -20 -13 0 -20 -7 -20 -20 0 -13 -7 -20 -20
-20 -13 0 -20 -7 -20 -20 0 -11 -7 -20 -15 -20 -8 0 -15 -7 -15 -15 0 -8 -9
-15 -20 -15 -13 0 -20 -7 -20 -20 0 -13 -7 -20 -20 -20 -13 0 -20 -7 -20 -20
0 -11 -7 -20 -15 -20 -8 0 -15 -7 -15 -15 0 -8 -9 -15 -20 -15 -13 0 -20 -7
-20 -20 0 -13 -7 -20 -20 -20 -11 0 -20 -6 -20 -14 0 -7 -9 -16 -20 -19 -11
-3 -20 -12 -20 -21 0 -12 -10 -16 -35 -16 -28 0 -35 -4 -35 -20 0 -13 -7 -20
-20 -20 -11 0 -20 -7 -20 -15 0 -8 -14 -17 -35 -21 -20 -3 -35 -12 -35 -20 0
-9 -12 -14 -35 -14 -28 0 -35 -4 -35 -20 0 -17 -7 -20 -40 -20 -33 0 -40 -3
-40 -20 0 -16 -7 -20 -35 -20 -23 0 -35 -5 -35 -14 0 -9 -15 -17 -40 -21 -25
-4 -40 -12 -40 -21 0 -9 -12 -14 -35 -14 -23 0 -35 -5 -35 -14 0 -15 -42 -26
-101 -26 -27 0 -39 -4 -39 -14 0 -10 -19 -15 -71 -18 -54 -3 -73 -8 -80 -21
-9 -15 -27 -17 -134 -17 -104 0 -125 -2 -125 -15 0 -13 -27 -15 -185 -15 -158
0 -185 2 -185 15 0 13 -23 15 -150 15 -121 0 -150 3 -150 14 0 17 -31 26 -97
26 -40 0 -53 4 -53 15 0 11 -11 15 -39 15 -59 0 -101 11 -101 26 0 9 -12 14
-35 14 -21 0 -37 6 -43 16 -5 10 -28 18 -55 21 -31 4 -47 10 -47 19 0 8 -9 14
-21 14 -12 0 -23 8 -26 20 -4 15 -14 20 -39 20 -27 0 -34 4 -34 20 0 16 -7 20
-35 20 -23 0 -35 5 -35 14 0 8 -15 17 -35 20 -19 4 -35 13 -35 20 0 8 -16 17
-35 20 -21 4 -35 13 -35 21 0 8 -9 15 -20 15 -11 0 -20 7 -20 15 0 8 -9 15
-20 15 -13 0 -20 7 -20 20 0 16 -7 20 -35 20 -28 0 -35 4 -35 20 0 13 -7 20
-20 20 -13 0 -20 7 -20 20 0 13 -7 20 -20 20 -11 0 -20 6 -20 14 0 7 -9 16
-20 19 -11 3 -20 12 -20 21 0 9 -7 16 -15 16 -8 0 -15 7 -15 15 0 8 -9 15 -20
15 -13 0 -20 7 -20 20 0 13 -7 20 -20 20 -13 0 -20 7 -20 20 0 11 -7 20 -15
20 -8 0 -15 9 -15 20 0 13 -7 20 -20 20 -11 0 -20 7 -20 15 0 8 -7 15 -15 15
-8 0 -15 9 -15 20 0 13 -7 20 -19 20 -14 0 -21 10 -25 35 -4 21 -13 35 -21 35
-8 0 -15 9 -15 20 0 11 -7 20 -15 20 -8 0 -17 14 -21 35 -3 20 -12 35 -20 35
-8 0 -14 8 -14 19 0 10 -9 21 -20 24 -14 4 -20 14 -20 35 0 21 -6 31 -20 35
-15 4 -20 14 -20 41 0 25 -4 36 -15 36 -10 0 -15 11 -15 35 0 28 -4 35 -20 35
-17 0 -20 7 -20 40 0 33 -3 40 -20 40 -16 0 -20 7 -20 35 0 24 -5 35 -15 35
-12 0 -15 13 -15 55 0 48 -2 55 -20 55 -18 0 -20 7 -20 69 0 60 -2 69 -20 74
-18 5 -20 14 -20 76 0 54 -3 71 -14 71 -11 0 -15 23 -18 106 -2 88 -6 107 -20
115 -17 9 -18 43 -18 484 0 396 2 475 14 475 18 0 26 44 26 141 0 64 3 79 15
79 12 0 15 15 15 75 0 68 2 75 20 75 18 0 20 7 20 60 0 44 4 60 14 60 9 0 16
18 20 50 5 34 11 50 21 50 11 0 15 12 15 40 0 32 4 40 19 40 15 0 19 10 24 47
3 27 11 50 21 55 10 6 16 22 16 43 0 24 5 35 15 35 8 0 15 9 15 20 0 13 7 20
20 20 16 0 20 7 20 35 0 24 5 35 15 35 8 0 17 14 21 35 3 20 12 35 20 35 8 0
14 9 14 21 0 12 8 23 20 26 14 4 20 14 20 33 0 19 6 29 20 33 11 3 20 12 20
21 0 9 7 16 15 16 8 0 15 9 15 20 0 13 7 20 20 20 13 0 20 7 20 20 0 13 7 20
20 20 13 0 20 7 20 20 0 11 6 20 14 20 8 0 17 14 21 30 4 17 13 30 22 30 8 0
17 9 20 20 3 11 12 20 19 20 8 0 14 9 14 20 0 13 7 20 20 20 11 0 20 7 20 15
0 8 7 15 16 15 9 0 18 9 21 19 3 12 17 23 34 26 16 4 29 13 29 21 0 8 9 14 20
14 13 0 20 7 20 20 0 13 7 20 20 20 11 0 20 6 20 14 0 8 15 17 35 20 21 4 35
13 35 21 0 8 9 15 20 15 13 0 20 7 20 20 0 13 7 20 20 20 11 0 20 7 20 15 0 8
14 17 35 21 20 3 35 12 35 20 0 9 12 14 35 14 28 0 35 4 35 20 0 17 7 20 40
20 28 0 40 4 40 15 0 8 14 17 35 21 20 3 35 12 35 20 0 8 10 14 24 14 45 0 86
13 86 26 0 10 15 14 55 14 40 0 55 4 55 14 0 15 43 26 106 26 31 0 44 4 44 14
0 11 21 15 86 17 69 3 87 7 95 22 10 17 32 18 330 15 266 -3 321 -5 329 -18z"/>
<path d="M19030 17670 l0 -5780 880 0 880 0 2 313 3 312 33 3 c27 3 32 0 32
-17 0 -14 6 -21 19 -21 10 0 21 -9 24 -20 3 -11 12 -20 21 -20 9 0 16 -7 16
-15 0 -10 11 -15 35 -15 28 0 35 -4 35 -20 0 -13 7 -20 20 -20 13 0 20 -7 20
-20 0 -16 7 -20 35 -20 24 0 35 -5 35 -15 0 -8 9 -15 20 -15 13 0 20 -7 20
-20 0 -16 7 -20 34 -20 25 0 35 -5 39 -20 4 -15 14 -20 36 -20 21 0 31 -5 31
-15 0 -9 9 -15 21 -15 12 0 23 -8 26 -20 4 -15 14 -20 39 -20 27 0 34 -4 34
-20 0 -16 7 -20 35 -20 24 0 35 -5 35 -15 0 -11 11 -15 36 -15 27 0 37 -5 41
-20 4 -15 14 -20 39 -20 27 0 34 -4 34 -20 0 -16 7 -20 35 -20 24 0 35 -5 35
-15 0 -11 11 -15 36 -15 27 0 37 -5 41 -20 4 -14 14 -20 32 -20 41 0 71 -11
71 -26 0 -10 13 -14 40 -14 27 0 40 -4 40 -14 0 -13 41 -26 86 -26 15 0 24 -6
24 -15 0 -11 12 -15 48 -15 61 0 92 -9 92 -26 0 -10 16 -14 60 -14 44 0 60 -4
60 -14 0 -15 51 -29 75 -20 27 11 105 -6 105 -22 0 -11 19 -14 95 -14 88 0 95
-1 95 -20 0 -20 7 -20 440 -20 368 0 440 2 440 14 0 20 32 26 148 26 84 0 102
3 102 15 0 9 10 16 28 17 15 1 38 2 52 3 14 1 37 2 53 3 17 1 27 8 27 17 0 12
14 15 70 15 63 0 70 2 70 20 0 18 7 20 60 20 47 0 60 3 60 15 0 11 11 15 43
15 56 0 87 9 87 26 0 10 13 14 45 14 32 0 45 4 45 14 0 15 30 26 71 26 18 0
28 6 32 20 4 15 14 20 41 20 25 0 36 4 36 15 0 10 11 15 35 15 28 0 35 4 35
20 0 16 7 20 35 20 23 0 35 5 35 14 0 9 15 17 40 21 25 4 40 12 40 21 0 9 12
14 35 14 28 0 35 4 35 20 0 16 7 20 34 20 25 0 35 5 39 20 3 11 12 20 21 20 9
0 16 7 16 15 0 10 10 15 34 15 25 0 35 5 39 20 4 14 14 20 35 20 21 0 31 6 35
20 3 11 12 20 21 20 9 0 16 6 16 14 0 8 15 17 35 20 21 4 35 13 35 21 0 8 8
15 19 15 10 0 21 9 24 20 3 11 12 20 21 20 9 0 16 7 16 15 0 8 9 15 20 15 11
0 20 7 20 15 0 8 14 17 35 21 25 4 35 11 35 25 0 12 7 19 20 19 11 0 20 7 20
15 0 8 7 15 16 15 9 0 18 9 21 20 3 11 14 20 24 20 11 0 19 6 19 14 0 8 13 17
29 21 17 3 31 14 34 26 3 10 12 19 21 19 9 0 16 7 16 15 0 8 9 15 20 15 13 0
20 7 20 20 0 13 7 20 20 20 13 0 20 7 20 20 0 11 7 20 15 20 8 0 15 7 15 15 0
8 9 15 20 15 13 0 20 7 20 20 0 13 7 20 20 20 11 0 20 7 20 15 0 8 7 15 15 15
8 0 15 9 15 20 0 13 7 20 20 20 13 0 20 7 20 20 0 13 7 20 20 20 13 0 20 7 20
20 0 11 7 20 15 20 8 0 15 7 15 15 0 8 9 15 20 15 13 0 20 7 20 20 0 11 7 20
15 20 8 0 17 14 21 35 4 21 12 35 21 35 8 0 17 9 20 20 3 11 12 20 19 20 8 0
14 9 14 20 0 13 7 20 20 20 13 0 20 7 20 20 0 11 6 20 14 20 8 0 17 13 21 30
4 16 13 30 21 30 8 0 14 9 14 20 0 13 7 20 20 20 13 0 20 7 20 20 0 11 7 20
15 20 10 0 15 11 15 35 0 28 4 35 20 35 13 0 20 7 20 20 0 13 7 20 20 20 16 0
20 7 20 35 0 23 5 35 14 35 9 0 17 15 21 40 4 23 12 40 20 40 7 0 16 16 19 35
4 21 13 35 21 35 10 0 15 11 15 34 0 25 5 35 20 39 11 3 20 12 20 21 0 9 7 16
15 16 11 0 15 11 15 40 0 33 3 40 20 40 16 0 20 7 20 35 0 24 5 35 15 35 9 0
15 9 15 24 0 45 13 86 26 86 9 0 14 12 14 35 0 28 4 35 20 35 18 0 20 7 20 55
0 48 2 55 20 55 18 0 20 7 20 55 0 42 3 55 15 55 10 0 15 10 15 33 0 47 10 77
26 77 11 0 14 18 14 75 0 68 2 75 20 75 18 0 20 7 20 75 0 60 3 75 15 75 12 0
15 17 15 90 0 83 1 90 20 90 19 0 20 7 20 130 0 105 3 130 14 130 23 0 28 108
24 563 -3 386 -4 419 -20 428 -16 9 -18 26 -18 134 0 100 -3 125 -14 125 -19
0 -26 32 -26 118 0 57 -3 72 -15 72 -12 0 -15 14 -15 68 0 55 -4 71 -20 85
-16 13 -20 29 -20 77 0 44 -4 60 -14 60 -16 0 -26 30 -26 78 0 22 -5 32 -15
32 -12 0 -15 13 -15 55 0 48 -2 55 -20 55 -18 0 -20 7 -20 55 0 48 -2 55 -20
55 -17 0 -20 7 -20 40 0 27 -4 40 -14 40 -15 0 -26 30 -26 73 0 17 -5 27 -15
27 -11 0 -15 11 -15 40 0 33 -3 40 -20 40 -16 0 -20 7 -20 35 0 23 -5 35 -14
35 -8 0 -17 15 -20 35 -4 21 -13 35 -21 35 -9 0 -15 10 -15 25 0 15 -6 25 -15
25 -8 0 -17 14 -21 35 -3 19 -12 35 -19 35 -7 0 -16 16 -19 35 -4 21 -13 35
-21 35 -10 0 -15 11 -15 35 0 28 -4 35 -20 35 -13 0 -20 7 -20 20 0 11 -7 20
-15 20 -8 0 -17 14 -21 35 -3 20 -12 35 -20 35 -8 0 -14 9 -14 20 0 13 -7 20
-20 20 -16 0 -20 7 -20 35 0 28 -4 35 -20 35 -13 0 -20 7 -20 20 0 11 -7 20
-15 20 -8 0 -15 9 -15 20 0 13 -7 20 -20 20 -13 0 -20 7 -20 20 0 11 -7 20
-15 20 -8 0 -17 14 -21 35 -3 20 -12 35 -20 35 -8 0 -14 7 -14 15 0 8 -9 15
-20 15 -13 0 -20 7 -20 19 0 10 -9 21 -20 24 -11 3 -20 12 -20 21 0 9 -7 16
-15 16 -8 0 -15 7 -15 16 0 9 -9 18 -20 21 -11 3 -20 12 -20 19 0 8 -7 14 -15
14 -8 0 -15 7 -15 16 0 9 -9 18 -20 21 -11 3 -20 12 -20 20 0 8 -9 17 -20 20
-11 3 -20 12 -20 19 0 8 -7 14 -15 14 -8 0 -15 9 -15 20 0 13 -7 20 -20 20
-12 0 -20 7 -20 16 0 9 -9 18 -20 21 -11 3 -20 11 -20 18 0 7 -9 15 -20 18
-11 3 -20 12 -20 21 0 9 -7 16 -15 16 -8 0 -15 7 -15 16 0 9 -9 18 -20 21 -11
3 -20 12 -20 19 0 8 -9 14 -20 14 -13 0 -20 7 -20 20 0 13 -7 20 -20 20 -11 0
-20 7 -20 15 0 8 -14 17 -35 21 -20 3 -35 12 -35 20 0 8 -7 14 -15 14 -8 0
-15 9 -15 20 0 13 -7 20 -20 20 -11 0 -20 6 -20 14 0 8 -15 17 -35 20 -21 4
-35 13 -35 21 0 8 -9 15 -20 15 -13 0 -20 7 -20 20 0 16 -7 20 -35 20 -28 0
-35 4 -35 20 0 13 -7 20 -20 20 -11 0 -20 6 -20 14 0 8 -15 17 -35 20 -21 4
-35 13 -35 21 0 8 -9 15 -20 15 -11 0 -20 6 -20 14 0 9 -15 17 -40 21 -25 4
-40 12 -40 21 0 9 -11 14 -31 14 -22 0 -32 5 -36 20 -3 11 -14 20 -24 20 -11
0 -19 7 -19 15 0 8 -14 17 -35 21 -20 3 -35 12 -35 20 0 8 -10 14 -24 14 -45
0 -86 13 -86 26 0 9 -12 14 -35 14 -28 0 -35 4 -35 20 0 17 -7 20 -40 20 -29
0 -40 4 -40 15 0 11 -11 15 -36 15 -27 0 -37 5 -41 20 -4 17 -14 20 -54 20
-42 0 -49 3 -49 20 0 18 -7 20 -55 20 -42 0 -55 3 -55 15 0 10 -10 15 -32 15
-48 0 -78 10 -78 26 0 10 -15 14 -55 14 -48 0 -55 2 -55 20 0 18 -7 20 -75 20
-57 0 -75 3 -75 14 0 13 -77 26 -156 26 -24 0 -34 5 -34 15 0 13 -23 15 -149
15 -165 0 -211 6 -211 26 0 12 -41 14 -225 14 -185 0 -225 -2 -225 -14 0 -21
-33 -26 -182 -26 -116 0 -138 -2 -138 -15 0 -10 -10 -15 -34 -15 -79 0 -156
-13 -156 -26 0 -11 -18 -14 -70 -14 -63 0 -70 -2 -70 -20 0 -18 -7 -20 -60
-20 -53 0 -60 -2 -60 -20 0 -18 -7 -20 -55 -20 -42 0 -55 -3 -55 -15 0 -11
-11 -15 -40 -15 -28 0 -40 -4 -40 -14 0 -17 -22 -26 -66 -26 -23 0 -34 -5 -34
-15 0 -10 -14 -17 -40 -21 -24 -4 -40 -12 -40 -20 0 -10 -14 -14 -50 -14 -43
0 -50 -3 -50 -20 0 -17 -7 -20 -40 -20 -28 0 -40 -4 -40 -15 0 -8 -14 -17 -35
-21 -20 -3 -35 -12 -35 -20 0 -9 -12 -14 -35 -14 -28 0 -35 -4 -35 -20 0 -17
-7 -20 -40 -20 -33 0 -40 -3 -40 -20 0 -13 -7 -20 -20 -20 -11 0 -20 -7 -20
-15 0 -10 -11 -15 -35 -15 -28 0 -35 -4 -35 -20 0 -16 -7 -20 -35 -20 -28 0
-35 -4 -35 -20 0 -13 -7 -20 -20 -20 -11 0 -20 -6 -20 -14 0 -8 -15 -17 -35
-20 -21 -4 -35 -13 -35 -21 0 -8 -9 -15 -20 -15 -11 0 -20 -7 -20 -15 0 -8
-14 -17 -35 -21 -20 -3 -35 -12 -35 -20 0 -8 -9 -14 -20 -14 -13 0 -20 -7 -20
-20 0 -16 -7 -20 -35 -20 -28 0 -35 -4 -35 -20 0 -13 -7 -20 -20 -20 -11 0
-20 -7 -20 -15 0 -8 -9 -15 -20 -15 -20 0 -20 7 -20 2245 l0 2245 -880 0 -880
0 0 -5780z m4300 576 c0 -18 44 -26 141 -26 64 0 79 -3 79 -15 0 -10 10 -15
29 -15 49 0 91 -12 91 -26 0 -10 14 -14 48 -14 61 0 92 -9 92 -26 0 -10 13
-14 40 -14 27 0 40 -4 40 -14 0 -15 30 -26 73 -26 17 0 27 -5 27 -15 0 -8 9
-15 19 -15 30 0 51 -11 51 -26 0 -8 10 -14 25 -14 15 0 25 -6 25 -14 0 -8 15
-17 35 -20 21 -4 35 -13 35 -21 0 -8 9 -15 20 -15 13 0 20 -7 20 -20 0 -16 7
-20 35 -20 23 0 35 -5 35 -14 0 -7 9 -16 20 -19 11 -3 20 -12 20 -20 0 -9 14
-17 35 -21 21 -4 35 -13 35 -21 0 -8 9 -15 20 -15 11 0 20 -6 20 -14 0 -7 9
-16 20 -19 11 -3 20 -12 20 -21 0 -9 7 -16 15 -16 8 0 15 -9 15 -20 0 -13 7
-20 20 -20 11 0 20 -7 20 -15 0 -8 7 -15 16 -15 9 0 18 -9 21 -20 3 -11 12
-20 19 -20 8 0 14 -9 14 -20 0 -13 7 -20 20 -20 11 0 20 -7 20 -15 0 -8 7 -15
16 -15 9 0 18 -9 21 -20 3 -11 12 -20 19 -20 8 0 14 -9 14 -20 0 -13 7 -20 20
-20 13 0 20 -7 20 -20 0 -11 6 -20 14 -20 7 0 16 -9 19 -20 3 -11 12 -20 21
-20 12 0 16 -10 16 -35 0 -28 4 -35 20 -35 13 0 20 -7 20 -20 0 -11 7 -20 15
-20 8 0 17 -14 21 -35 3 -19 12 -35 19 -35 7 0 16 -16 19 -35 4 -21 13 -35 21
-35 8 0 15 -9 15 -20 0 -11 7 -20 15 -20 10 0 17 -14 21 -40 4 -24 12 -40 20
-40 9 0 14 -11 14 -27 0 -43 11 -73 26 -73 10 0 14 -13 14 -40 0 -27 4 -40 14
-40 16 0 26 -30 26 -77 0 -21 5 -33 14 -33 9 0 15 -21 20 -70 5 -51 11 -70 22
-70 11 0 14 -16 14 -75 0 -57 3 -75 14 -75 19 0 26 -45 26 -161 0 -76 3 -99
13 -99 24 0 35 -351 20 -667 -5 -110 -9 -143 -20 -143 -10 0 -13 -19 -13 -79
0 -97 -8 -141 -26 -141 -11 0 -14 -20 -14 -90 0 -70 -3 -90 -14 -90 -15 0 -26
-43 -26 -106 0 -32 -4 -44 -15 -44 -9 0 -15 -9 -15 -24 0 -45 -13 -86 -26 -86
-9 0 -14 -12 -14 -32 0 -48 -10 -78 -26 -78 -9 0 -14 -12 -14 -35 0 -23 -5
-35 -14 -35 -8 0 -16 -16 -20 -40 -4 -24 -12 -40 -20 -40 -8 0 -17 -15 -20
-34 -4 -19 -13 -37 -21 -40 -8 -3 -15 -12 -15 -21 0 -8 -6 -15 -14 -15 -8 0
-17 -15 -20 -35 -4 -21 -13 -35 -21 -35 -9 0 -15 -9 -15 -21 0 -12 -8 -23 -20
-26 -15 -4 -20 -14 -20 -39 0 -24 -5 -34 -15 -34 -8 0 -15 -7 -15 -16 0 -9 -9
-18 -19 -21 -12 -3 -23 -17 -26 -34 -4 -16 -13 -29 -21 -29 -8 0 -14 -8 -14
-19 0 -10 -9 -21 -20 -24 -11 -3 -20 -12 -20 -21 0 -9 -7 -16 -15 -16 -8 0
-15 -9 -15 -20 0 -13 -7 -20 -20 -20 -11 0 -20 -6 -20 -14 0 -7 -9 -16 -20
-19 -11 -3 -20 -12 -20 -21 0 -9 -7 -16 -15 -16 -8 0 -15 -9 -15 -20 0 -13 -7
-20 -20 -20 -11 0 -20 -6 -20 -14 0 -7 -9 -16 -20 -19 -11 -3 -20 -12 -20 -21
0 -9 -8 -16 -20 -16 -11 0 -20 -6 -20 -14 0 -8 -13 -17 -30 -21 -17 -4 -30
-13 -30 -22 0 -8 -9 -17 -20 -20 -11 -3 -20 -12 -20 -19 0 -8 -10 -14 -25 -14
-16 0 -25 -6 -25 -15 0 -9 -12 -18 -30 -21 -16 -4 -30 -12 -30 -19 0 -7 -16
-16 -35 -19 -21 -4 -35 -13 -35 -21 0 -9 -10 -15 -25 -15 -15 0 -25 -6 -25
-15 0 -8 -14 -17 -35 -21 -19 -3 -35 -12 -35 -20 0 -7 -16 -16 -35 -20 -20 -3
-35 -12 -35 -20 0 -9 -12 -14 -35 -14 -21 0 -37 -6 -43 -16 -6 -11 -27 -18
-61 -22 -32 -3 -51 -9 -51 -17 0 -15 -31 -25 -77 -25 -23 0 -33 -5 -33 -15 0
-12 -15 -15 -75 -15 -68 0 -75 -2 -75 -20 0 -19 -7 -20 -140 -20 -118 0 -140
-2 -140 -15 0 -13 -30 -15 -210 -15 -180 0 -210 2 -210 15 0 13 -21 15 -130
15 -118 0 -132 2 -147 20 -14 16 -30 20 -85 20 -54 0 -68 3 -68 15 0 10 -10
15 -32 15 -48 0 -78 10 -78 26 0 10 -13 14 -40 14 -27 0 -40 4 -40 14 0 13
-41 26 -86 26 -14 0 -24 6 -24 14 0 8 -15 17 -35 20 -21 4 -35 13 -35 21 0 8
-9 15 -19 15 -30 0 -51 11 -51 26 0 8 -10 14 -25 14 -15 0 -25 6 -25 15 0 8
-14 17 -35 21 -19 3 -35 12 -35 19 0 7 -16 16 -35 19 -21 4 -35 13 -35 21 0 8
-9 15 -20 15 -11 0 -20 6 -20 14 0 7 -9 16 -20 19 -11 3 -20 12 -20 21 0 9 -8
16 -20 16 -13 0 -20 7 -20 20 0 16 -7 20 -30 20 -21 0 -30 5 -30 16 0 9 -9 18
-20 21 -11 3 -20 11 -20 18 0 7 -9 15 -20 18 -11 3 -20 12 -20 21 0 9 -8 16
-20 16 -13 0 -20 7 -20 20 0 11 -7 20 -15 20 -8 0 -15 7 -15 16 0 9 -9 18 -20
21 -11 3 -20 12 -20 19 0 8 -7 14 -15 14 -8 0 -17 14 -20 34 -5 22 -14 36 -26
39 -10 3 -19 12 -19 21 0 9 -7 16 -15 16 -8 0 -15 9 -15 20 0 13 -7 20 -20 20
-16 0 -20 7 -20 35 0 28 -4 35 -20 35 -13 0 -20 7 -20 20 0 11 -7 20 -15 20
-10 0 -15 11 -15 35 0 28 -4 35 -20 35 -13 0 -20 7 -20 20 0 11 -6 20 -14 20
-9 0 -17 15 -21 40 -4 25 -12 40 -21 40 -9 0 -14 12 -14 35 0 23 -5 35 -14 35
-15 0 -26 30 -26 71 0 18 -6 28 -20 32 -15 4 -20 14 -20 41 0 25 -4 36 -15 36
-10 0 -15 10 -15 33 0 47 -10 77 -26 77 -11 0 -14 18 -14 75 0 68 -2 75 -20
75 -18 0 -20 7 -20 70 0 56 -3 70 -15 70 -12 0 -15 14 -15 64 0 83 -9 126 -27
126 -21 0 -15 1016 6 1030 11 6 16 35 19 99 3 69 8 91 18 91 10 0 14 14 14 48
0 61 9 92 26 92 10 0 14 16 14 60 0 44 4 60 14 60 16 0 26 30 26 78 0 22 5 32
15 32 9 0 15 9 15 24 0 45 13 86 26 86 9 0 14 11 14 28 0 42 11 72 26 72 9 0
14 12 14 35 0 24 5 35 15 35 9 0 15 9 15 21 0 12 8 23 20 26 15 4 20 14 20 39
0 27 4 34 20 34 16 0 20 7 20 35 0 24 5 35 15 35 8 0 15 7 15 16 0 9 9 18 20
21 11 3 20 14 20 24 0 12 7 19 20 19 16 0 20 7 20 35 0 24 5 35 15 35 8 0 15
7 15 16 0 9 9 18 20 21 11 3 20 12 20 19 0 8 9 14 20 14 13 0 20 7 20 20 0 11
6 20 14 20 7 0 16 9 19 20 3 11 12 20 20 20 8 0 17 9 20 20 3 11 12 20 21 20
9 0 16 7 16 15 0 8 7 15 15 15 8 0 15 9 15 20 0 13 7 20 19 20 10 0 21 9 24
20 3 11 12 20 21 20 9 0 16 7 16 15 0 8 9 15 20 15 13 0 20 7 20 20 0 16 7 20
35 20 28 0 35 4 35 20 0 13 7 20 20 20 11 0 20 7 20 15 0 8 9 15 20 15 11 0
20 7 20 15 0 8 14 17 35 21 25 4 35 11 35 25 0 12 7 19 20 19 11 0 20 7 20 15
0 10 11 15 35 15 28 0 35 4 35 20 0 16 7 20 35 20 23 0 35 5 35 14 0 9 15 17
40 21 25 4 40 12 40 21 0 8 10 14 24 14 45 0 86 13 86 26 0 10 15 14 55 14 40
0 55 4 55 14 0 15 42 26 101 26 28 0 39 4 39 15 0 12 13 15 58 15 94 0 162 11
162 26 0 12 56 14 315 14 261 0 315 -2 315 -14z"/>
<path d="M29920 17245 c0 -12 -14 -15 -67 -15 -81 0 -113 -8 -113 -26 0 -10
-15 -14 -55 -14 -48 0 -55 -2 -55 -20 0 -15 -7 -20 -25 -20 -16 0 -25 -6 -25
-15 0 -9 -12 -18 -30 -21 -16 -4 -30 -13 -30 -20 0 -8 -9 -14 -20 -14 -13 0
-20 -7 -20 -20 0 -13 -7 -20 -20 -20 -11 0 -20 -7 -20 -15 0 -8 -7 -15 -16
-15 -9 0 -18 -9 -21 -20 -3 -11 -12 -20 -19 -20 -8 0 -14 -9 -14 -20 0 -13 -7
-20 -20 -20 -13 0 -20 -7 -20 -20 0 -11 -6 -20 -14 -20 -8 0 -17 -15 -20 -35
-4 -19 -13 -35 -20 -35 -8 0 -17 -16 -20 -35 -4 -21 -13 -35 -21 -35 -11 0
-15 -12 -15 -40 0 -27 -4 -40 -14 -40 -18 0 -29 -194 -20 -352 5 -89 10 -118
20 -118 10 0 14 -15 14 -55 0 -48 2 -55 20 -55 17 0 20 -7 20 -40 0 -33 3 -40
20 -40 13 0 20 -7 20 -20 0 -11 7 -20 15 -20 10 0 15 -10 15 -31 0 -22 5 -32
20 -36 11 -3 20 -12 20 -19 0 -8 7 -14 16 -14 9 0 18 -9 21 -20 3 -11 12 -20
19 -20 8 0 14 -9 14 -20 0 -13 7 -20 20 -20 11 0 20 -7 20 -15 0 -8 9 -15 20
-15 13 0 20 -7 20 -20 0 -16 7 -20 35 -20 28 0 35 -4 35 -20 0 -16 7 -20 35
-20 24 0 35 -5 35 -15 0 -10 10 -15 33 -15 47 0 77 -10 77 -26 0 -12 42 -14
240 -14 233 0 240 1 240 20 0 18 7 20 55 20 42 0 55 3 55 15 0 10 11 15 35 15
28 0 35 4 35 20 0 13 7 20 19 20 10 0 21 9 24 20 4 15 14 20 36 20 21 0 31 5
31 15 0 8 9 15 20 15 13 0 20 7 20 20 0 13 7 20 20 20 13 0 20 7 20 20 0 11 6
20 14 20 7 0 16 9 19 20 3 11 12 20 21 20 12 0 16 10 16 35 0 28 4 35 20 35
13 0 20 7 20 20 0 11 6 20 14 20 15 0 26 30 26 73 0 17 5 27 15 27 10 0 15 10
15 33 0 47 10 77 26 77 11 0 14 36 14 199 0 190 -1 199 -20 204 -17 4 -20 14
-20 61 0 42 -4 56 -15 56 -8 0 -17 14 -21 35 -3 20 -12 35 -20 35 -8 0 -14 9
-14 20 0 11 -7 20 -15 20 -8 0 -17 14 -21 35 -4 25 -11 35 -25 35 -12 0 -19 7
-19 20 0 11 -7 20 -15 20 -8 0 -15 9 -15 20 0 13 -7 20 -20 20 -11 0 -20 7
-20 15 0 8 -7 15 -16 15 -9 0 -18 9 -21 20 -3 11 -14 20 -24 20 -11 0 -19 7
-19 15 0 10 -10 15 -30 15 -23 0 -30 4 -30 20 0 16 -7 20 -36 20 -27 0 -37 5
-41 20 -4 15 -14 20 -39 20 -22 0 -34 5 -34 14 0 14 -67 26 -147 26 -32 0 -43
4 -43 15 0 12 -17 15 -90 15 -73 0 -90 -3 -90 -15z"/>
<path d="M2757 11223 c-4 -3 -7 -1884 -7 -4180 l0 -4173 610 0 610 0 0 1489
c0 1480 0 1489 20 1494 19 5 20 14 20 241 0 203 2 236 15 236 12 0 15 19 15
110 0 103 1 110 20 110 18 0 20 7 20 75 0 68 2 75 20 75 18 0 20 7 20 55 0 40
4 55 14 55 13 0 26 41 26 86 0 15 6 24 15 24 8 0 15 6 15 14 0 7 9 16 20 19
15 4 20 14 20 41 0 29 4 36 20 36 11 0 20 7 20 15 0 8 7 15 15 15 8 0 15 9 15
20 0 13 7 20 20 20 13 0 20 7 20 20 0 13 7 20 20 20 11 0 20 7 20 15 0 8 7 15
15 15 8 0 15 9 15 20 0 16 7 20 36 20 27 0 37 5 41 20 3 11 11 20 18 20 7 0
15 9 18 20 4 15 14 20 41 20 25 0 36 4 36 15 0 10 11 15 35 15 28 0 35 4 35
20 0 16 7 20 36 20 27 0 37 5 41 20 5 18 14 20 74 20 52 0 69 3 69 14 0 17 44
26 126 26 50 0 64 3 64 15 0 13 33 15 235 15 202 0 235 -2 235 -15 0 -12 13
-15 58 -15 94 0 162 -11 162 -26 0 -10 15 -14 55 -14 48 0 55 -2 55 -20 0 -16
7 -20 34 -20 25 0 35 -5 39 -20 4 -15 14 -20 41 -20 25 0 36 -4 36 -15 0 -8 6
-15 14 -15 7 0 16 -9 19 -20 3 -11 12 -20 21 -20 9 0 16 -7 16 -16 0 -9 9 -18
20 -21 11 -3 20 -11 20 -18 0 -7 9 -15 20 -18 11 -3 20 -12 20 -21 0 -9 7 -16
15 -16 8 0 15 -7 15 -16 0 -9 9 -18 20 -21 15 -4 20 -14 20 -39 0 -27 4 -34
20 -34 13 0 20 -7 20 -20 0 -11 7 -20 15 -20 10 0 15 -11 15 -35 0 -28 4 -35
20 -35 18 0 20 -7 20 -55 0 -48 2 -55 20 -55 18 0 20 -7 20 -55 0 -42 3 -55
15 -55 11 0 15 -12 15 -44 0 -63 11 -106 26 -106 11 0 14 -26 14 -126 0 -117
1 -126 20 -131 20 -5 20 -14 20 -1714 l0 -1709 605 0 605 0 0 1770 c0 1567 -2
1770 -15 1770 -13 0 -15 23 -15 145 0 138 -1 145 -20 145 -19 0 -20 7 -20 95
0 74 -3 95 -14 95 -16 0 -26 30 -26 78 0 22 -5 32 -15 32 -11 0 -15 12 -15 51
0 42 -3 52 -20 56 -17 5 -20 14 -20 59 0 41 -4 54 -15 54 -8 0 -17 14 -21 35
-3 20 -12 35 -20 35 -9 0 -14 12 -14 36 0 27 -5 37 -20 41 -15 4 -20 14 -20
39 0 22 -5 34 -14 34 -8 0 -17 15 -20 35 -4 21 -13 35 -21 35 -10 0 -15 11
-15 36 0 27 -5 37 -20 41 -11 3 -20 12 -20 19 0 8 -6 14 -14 14 -9 0 -17 15
-21 40 -4 25 -12 40 -21 40 -8 0 -14 7 -14 15 0 8 -9 15 -20 15 -13 0 -20 7
-20 20 0 13 -7 20 -20 20 -13 0 -20 7 -20 20 0 11 -7 20 -15 20 -10 0 -15 10
-15 31 0 22 -5 32 -19 36 -11 3 -21 13 -24 24 -3 10 -12 19 -21 19 -9 0 -16 7
-16 15 0 8 -6 15 -14 15 -7 0 -16 9 -19 20 -4 15 -14 20 -41 20 -29 0 -36 4
-36 20 0 11 -7 20 -15 20 -8 0 -15 7 -15 15 0 8 -9 15 -20 15 -13 0 -20 7 -20
20 0 13 -7 20 -20 20 -13 0 -20 7 -20 20 0 11 -7 20 -15 20 -8 0 -15 6 -15 14
0 8 -16 16 -40 20 -26 4 -40 11 -40 21 0 8 -9 15 -20 15 -13 0 -20 7 -20 20 0
16 -7 20 -35 20 -23 0 -35 5 -35 14 0 8 -15 17 -35 20 -21 4 -35 13 -35 21 0
10 -11 15 -34 15 -25 0 -35 5 -39 20 -4 15 -14 20 -41 20 -25 0 -36 5 -36 15
0 8 -14 17 -35 21 -20 3 -35 12 -35 20 0 10 -13 14 -40 14 -33 0 -40 3 -40 20
0 18 -7 20 -55 20 -42 0 -55 3 -55 15 0 9 -9 15 -24 15 -45 0 -86 13 -86 26 0
11 -20 14 -89 14 -80 0 -89 2 -94 20 -5 19 -14 20 -166 20 -136 0 -161 2 -161
15 0 12 -17 15 -95 15 -78 0 -95 -3 -95 -15 0 -13 -23 -15 -146 -15 -137 0
-146 -1 -151 -20 -5 -18 -14 -20 -74 -20 -52 0 -69 -3 -69 -14 0 -13 -41 -26
-86 -26 -15 0 -24 -6 -24 -15 0 -12 -13 -15 -55 -15 -48 0 -55 -2 -55 -20 0
-17 -7 -20 -40 -20 -28 0 -40 -4 -40 -15 0 -8 -14 -17 -35 -21 -20 -3 -35 -12
-35 -20 0 -9 -12 -14 -36 -14 -27 0 -37 -5 -41 -20 -4 -15 -14 -20 -39 -20
-27 0 -34 -4 -34 -20 0 -13 -7 -20 -20 -20 -11 0 -20 -7 -20 -15 0 -10 -10
-15 -31 -15 -22 0 -32 -5 -36 -20 -3 -11 -14 -20 -24 -20 -11 0 -19 -7 -19
-15 0 -8 -7 -15 -15 -15 -8 0 -15 -9 -15 -20 0 -13 -7 -20 -20 -20 -13 0 -20
-7 -20 -20 0 -16 -7 -20 -35 -20 -28 0 -35 -4 -35 -20 0 -18 -7 -20 -55 -20
l-55 0 0 1585 0 1585 -603 0 c-332 0 -607 -3 -610 -7z"/>
<path d="M11440 8595 c0 -13 -27 -15 -181 -15 -172 0 -181 -1 -186 -20 -5 -18
-14 -20 -114 -20 -86 0 -109 -3 -109 -14 0 -15 -43 -26 -106 -26 -32 0 -44 -4
-44 -15 0 -11 -12 -15 -51 -15 -42 0 -52 -3 -56 -20 -5 -17 -14 -20 -59 -20
-41 0 -54 -4 -54 -15 0 -8 -14 -17 -35 -21 -20 -3 -35 -12 -35 -20 0 -10 -15
-14 -55 -14 -48 0 -55 -2 -55 -20 0 -17 -7 -20 -40 -20 -28 0 -40 -4 -40 -15
0 -8 -14 -17 -35 -21 -20 -3 -35 -12 -35 -20 0 -9 -12 -14 -35 -14 -28 0 -35
-4 -35 -20 0 -16 -7 -20 -36 -20 -27 0 -37 -5 -41 -20 -3 -11 -12 -20 -19 -20
-8 0 -14 -7 -14 -15 0 -11 -11 -15 -36 -15 -27 0 -37 -5 -41 -20 -3 -11 -11
-20 -18 -20 -7 0 -15 -9 -18 -20 -4 -15 -14 -20 -41 -20 -25 0 -36 -4 -36 -15
0 -8 -7 -15 -15 -15 -8 0 -15 -9 -15 -20 0 -13 -7 -20 -20 -20 -13 0 -20 -7
-20 -20 0 -13 -7 -20 -20 -20 -11 0 -20 -7 -20 -15 0 -10 -10 -15 -31 -15 -22
0 -32 -5 -36 -20 -3 -11 -14 -20 -24 -20 -12 0 -19 -7 -19 -20 0 -11 -7 -20
-15 -20 -8 0 -15 -7 -15 -15 0 -8 -9 -15 -20 -15 -13 0 -20 -7 -20 -20 0 -13
-7 -20 -20 -20 -13 0 -20 -7 -20 -20 0 -13 -7 -20 -20 -20 -11 0 -20 -7 -20
-15 0 -8 -7 -15 -15 -15 -8 0 -15 -9 -15 -20 0 -13 -7 -20 -20 -20 -13 0 -20
-7 -20 -20 0 -13 -7 -20 -20 -20 -11 0 -20 -7 -20 -15 0 -8 -7 -15 -15 -15 -8
0 -15 -9 -15 -20 0 -13 -7 -20 -20 -20 -16 0 -20 -7 -20 -35 0 -25 -4 -35 -16
-35 -9 0 -18 -9 -21 -20 -3 -11 -12 -20 -19 -20 -8 0 -14 -9 -14 -20 0 -13 -7
-20 -20 -20 -16 0 -20 -7 -20 -35 0 -25 -4 -35 -16 -35 -9 0 -18 -9 -21 -20
-3 -11 -12 -20 -19 -20 -9 0 -14 -12 -14 -35 0 -28 -4 -35 -20 -35 -13 0 -20
-7 -20 -19 0 -10 -9 -21 -20 -24 -15 -4 -20 -14 -20 -36 0 -21 -5 -31 -15 -31
-11 0 -15 -11 -15 -36 0 -27 -5 -37 -20 -41 -15 -4 -20 -14 -20 -38 0 -24 -5
-34 -20 -38 -15 -4 -20 -14 -20 -36 0 -21 -5 -31 -15 -31 -11 0 -15 -11 -15
-40 0 -33 -3 -40 -20 -40 -16 0 -20 -7 -20 -34 0 -25 -5 -35 -20 -39 -17 -4
-20 -14 -20 -56 0 -39 -4 -51 -15 -51 -11 0 -15 -12 -15 -44 0 -63 -11 -106
-26 -106 -11 0 -14 -18 -14 -75 0 -68 -2 -75 -20 -75 -19 0 -20 -7 -20 -90 0
-69 -3 -90 -13 -90 -15 0 -27 -140 -27 -312 0 -72 -3 -88 -15 -88 -12 0 -15
-19 -15 -115 0 -96 3 -115 15 -115 12 0 15 -15 15 -72 0 -159 13 -298 27 -298
10 0 13 -21 13 -90 0 -83 1 -90 20 -90 19 0 20 -7 20 -95 0 -74 3 -95 14 -95
16 0 26 -30 26 -77 0 -23 5 -33 15 -33 11 0 15 -12 15 -51 0 -42 3 -52 20 -56
17 -5 20 -14 20 -59 0 -47 2 -54 20 -54 16 0 20 -7 20 -35 0 -24 5 -35 15 -35
11 0 15 -11 15 -36 0 -27 5 -37 20 -41 15 -4 20 -14 20 -39 0 -27 4 -34 20
-34 13 0 20 -7 20 -20 0 -11 7 -20 15 -20 10 0 15 -11 15 -35 0 -28 4 -35 20
-35 16 0 20 -7 20 -34 0 -25 5 -35 20 -39 11 -3 20 -12 20 -21 0 -9 6 -16 14
-16 8 0 17 -15 20 -35 4 -21 13 -35 21 -35 8 0 15 -9 15 -20 0 -13 7 -20 20
-20 13 0 20 -7 20 -20 0 -11 7 -20 15 -20 10 0 15 -10 15 -31 0 -22 5 -32 20
-36 11 -3 20 -14 20 -24 0 -12 7 -19 20 -19 13 0 20 -7 20 -20 0 -11 7 -20 15
-20 8 0 15 -7 15 -15 0 -8 9 -15 20 -15 13 0 20 -7 20 -20 0 -13 7 -20 20 -20
13 0 20 -7 20 -20 0 -11 7 -20 15 -20 8 0 15 -7 15 -15 0 -8 9 -15 20 -15 13
0 20 -7 20 -20 0 -13 7 -20 20 -20 13 0 20 -7 20 -20 0 -11 7 -20 15 -20 8 0
15 -7 15 -15 0 -8 9 -15 20 -15 13 0 20 -7 20 -20 0 -13 7 -20 20 -20 13 0 20
-7 20 -20 0 -11 7 -20 15 -20 8 0 15 -7 15 -15 0 -8 9 -15 20 -15 13 0 20 -7
20 -20 0 -13 7 -20 20 -20 13 0 20 -7 20 -20 0 -16 7 -20 35 -20 24 0 35 -5
35 -15 0 -8 9 -15 20 -15 13 0 20 -7 20 -20 0 -13 7 -20 20 -20 11 0 20 -7 20
-15 0 -8 14 -17 35 -21 20 -3 35 -12 35 -20 0 -8 9 -14 20 -14 13 0 20 -7 20
-20 0 -16 7 -20 34 -20 25 0 35 -5 39 -20 4 -15 14 -20 36 -20 21 0 31 -5 31
-15 0 -11 11 -15 40 -15 33 0 40 -3 40 -20 0 -16 7 -20 34 -20 25 0 35 -5 39
-20 4 -15 14 -20 36 -20 20 0 31 -5 31 -14 0 -8 16 -16 40 -20 26 -4 40 -11
40 -21 0 -11 13 -15 54 -15 45 0 54 -3 59 -20 4 -17 14 -20 56 -20 39 0 51 -4
51 -15 0 -12 13 -15 55 -15 48 0 55 -2 55 -20 0 -18 7 -20 75 -20 68 0 75 -2
75 -20 0 -19 7 -20 130 -20 109 0 130 -2 130 -15 0 -13 48 -15 370 -15 322 0
370 2 370 15 0 12 18 15 106 15 97 0 106 2 111 20 5 18 14 20 73 20 59 0 68 2
73 20 5 18 14 20 76 20 56 0 71 3 71 15 0 11 11 15 36 15 27 0 37 5 41 20 4
17 14 20 54 20 35 0 51 5 55 15 3 8 21 17 40 21 19 3 34 12 34 20 0 9 12 14
35 14 28 0 35 4 35 20 0 17 7 20 40 20 33 0 40 3 40 20 0 18 7 20 55 20 42 0
55 3 55 15 0 8 7 15 15 15 8 0 15 9 15 20 0 17 7 20 40 20 33 0 40 3 40 20 0
16 7 20 35 20 24 0 35 5 35 15 0 8 7 15 16 15 9 0 18 9 21 20 3 11 11 20 18
20 7 0 15 9 18 20 4 15 14 20 41 20 25 0 36 4 36 15 0 8 7 15 16 15 9 0 18 9
21 20 3 11 12 20 19 20 8 0 14 9 14 20 0 16 7 20 35 20 24 0 35 5 35 15 0 8 7
15 16 15 9 0 18 9 21 20 3 11 14 20 24 20 12 0 19 7 19 20 0 13 7 20 20 20 11
0 20 7 20 15 0 8 7 15 15 15 8 0 15 9 15 20 0 13 7 20 20 20 13 0 20 7 20 20
0 13 7 20 20 20 11 0 20 7 20 15 0 8 7 15 15 15 8 0 15 9 15 20 0 13 7 20 20
20 13 0 20 7 20 19 0 10 9 21 20 24 11 3 20 12 20 21 0 9 7 16 15 16 8 0 15 6
15 14 0 7 9 16 20 19 15 4 20 14 20 41 0 29 4 36 20 36 11 0 20 7 20 15 0 8 7
15 15 15 8 0 15 9 15 20 0 13 7 20 20 20 16 0 20 7 20 34 0 25 5 35 20 39 15
4 20 14 20 41 0 25 4 36 15 36 8 0 15 7 15 15 0 8 9 15 20 15 17 0 20 7 20 40
0 33 3 40 20 40 11 0 20 7 20 15 0 8 7 15 15 15 11 0 15 11 15 40 0 33 3 40
20 40 16 0 20 7 20 34 0 25 5 35 20 39 15 4 20 14 20 41 0 24 5 36 14 36 9 0
15 16 19 47 3 27 11 50 21 55 11 6 16 23 16 57 0 40 3 50 20 54 17 4 20 14 20
61 0 41 4 56 14 56 10 0 16 20 21 70 5 50 11 70 21 70 11 0 14 17 14 74 0 65
2 74 20 79 18 5 20 14 20 111 0 82 3 106 13 106 11 0 15 41 21 189 9 251 -2
551 -21 551 -10 0 -13 24 -13 110 0 103 -1 110 -20 110 -19 0 -20 7 -20 95 0
74 -3 95 -14 95 -9 0 -16 18 -21 55 -4 38 -11 55 -21 55 -10 0 -14 14 -14 55
0 48 -2 55 -20 55 -18 0 -20 7 -20 55 0 40 -4 55 -14 55 -16 0 -26 30 -26 78
0 22 -5 32 -15 32 -10 0 -15 11 -15 35 0 28 -4 35 -20 35 -16 0 -20 7 -20 35
0 22 -6 38 -15 41 -8 3 -17 21 -21 40 -3 19 -12 34 -20 34 -8 0 -14 7 -14 16
0 9 -9 18 -20 21 -15 4 -20 14 -20 39 0 27 -4 34 -20 34 -16 0 -20 7 -20 35 0
24 -5 35 -15 35 -8 0 -15 9 -15 20 0 13 -7 20 -20 20 -16 0 -20 7 -20 35 0 25
-4 35 -16 35 -9 0 -18 9 -21 20 -3 11 -11 20 -18 20 -7 0 -15 9 -18 20 -3 11
-12 20 -21 20 -12 0 -16 10 -16 35 0 28 -4 35 -20 35 -13 0 -20 7 -20 20 0 11
-6 20 -14 20 -7 0 -16 9 -19 20 -3 11 -12 20 -21 20 -9 0 -16 7 -16 15 0 8 -9
15 -20 15 -13 0 -20 7 -20 20 0 11 -6 20 -14 20 -7 0 -16 9 -19 20 -3 11 -12
20 -21 20 -9 0 -16 7 -16 15 0 8 -9 15 -20 15 -13 0 -20 7 -20 20 0 11 -6 20
-14 20 -7 0 -16 9 -19 20 -3 11 -12 20 -21 20 -9 0 -16 7 -16 15 0 8 -9 15
-20 15 -13 0 -20 7 -20 20 0 11 -6 20 -14 20 -7 0 -16 9 -19 20 -3 11 -12 20
-21 20 -9 0 -16 7 -16 15 0 8 -9 15 -20 15 -13 0 -20 7 -20 20 0 16 -7 20 -35
20 -28 0 -35 4 -35 20 0 13 -7 20 -20 20 -11 0 -20 6 -20 14 0 7 -9 16 -20 19
-11 3 -20 12 -20 21 0 12 -10 16 -35 16 -28 0 -35 4 -35 20 0 13 -7 20 -20 20
-11 0 -20 7 -20 15 0 8 -7 15 -15 15 -8 0 -15 9 -15 20 0 17 -7 20 -40 20 -33
0 -40 3 -40 20 0 16 -7 20 -35 20 -23 0 -35 5 -35 14 0 8 -15 17 -35 20 -21 4
-35 13 -35 21 0 11 -12 15 -40 15 -33 0 -40 3 -40 20 0 18 -7 20 -55 20 -40 0
-55 4 -55 14 0 8 -15 17 -35 20 -21 4 -35 13 -35 21 0 11 -13 15 -54 15 -45 0
-54 3 -59 20 -4 17 -14 20 -56 20 -39 0 -51 4 -51 15 0 10 -10 15 -32 15 -48
0 -78 10 -78 26 0 11 -21 14 -95 14 -88 0 -95 1 -95 20 0 19 -7 20 -185 20
-158 0 -185 2 -185 15 0 12 -19 15 -110 15 -91 0 -110 -3 -110 -15z m370
-1140 c0 -11 12 -15 44 -15 63 0 106 -11 106 -26 0 -11 17 -14 70 -14 54 0 70
-3 70 -14 0 -9 15 -17 40 -21 25 -4 40 -12 40 -21 0 -9 12 -14 35 -14 28 0 35
-4 35 -20 0 -17 7 -20 40 -20 33 0 40 -3 40 -20 0 -16 7 -20 35 -20 24 0 35
-5 35 -15 0 -8 7 -15 16 -15 9 0 18 -9 21 -20 4 -15 14 -20 39 -20 27 0 34 -4
34 -20 0 -13 7 -20 20 -20 11 0 20 -6 20 -14 0 -7 9 -16 20 -19 11 -3 20 -12
20 -21 0 -9 7 -16 15 -16 8 0 15 -7 15 -15 0 -8 14 -17 35 -21 25 -4 35 -11
35 -25 0 -12 7 -19 20 -19 16 0 20 -7 20 -35 0 -28 4 -35 20 -35 11 0 20 -6
20 -14 0 -7 9 -16 20 -19 11 -3 20 -12 20 -21 0 -9 7 -16 15 -16 8 0 15 -9 15
-20 0 -13 7 -20 20 -20 16 0 20 -7 20 -34 0 -25 5 -35 20 -39 11 -3 20 -12 20
-21 0 -9 7 -16 15 -16 11 0 15 -11 15 -36 0 -27 5 -37 20 -41 15 -4 20 -14 20
-39 0 -23 5 -34 15 -34 8 0 17 -14 21 -35 3 -19 12 -35 19 -35 8 0 14 -19 17
-51 4 -34 11 -55 22 -61 11 -6 16 -23 16 -58 0 -37 4 -50 14 -50 11 0 16 -22
22 -90 4 -60 11 -90 19 -90 17 0 27 -347 18 -630 -5 -174 -9 -220 -20 -220 -8
0 -13 -12 -13 -34 0 -79 -13 -156 -26 -156 -10 0 -14 -15 -14 -55 0 -40 -4
-55 -14 -55 -16 0 -26 -30 -26 -77 0 -23 -5 -33 -15 -33 -10 0 -15 -11 -15
-35 0 -28 -4 -35 -20 -35 -16 0 -20 -7 -20 -36 0 -27 -5 -37 -20 -41 -15 -4
-20 -14 -20 -39 0 -23 -5 -34 -15 -34 -8 0 -17 -14 -21 -35 -3 -20 -12 -35
-20 -35 -8 0 -14 -9 -14 -20 0 -13 -7 -20 -20 -20 -16 0 -20 -7 -20 -35 0 -25
-4 -35 -16 -35 -9 0 -18 -9 -21 -20 -3 -11 -11 -20 -18 -20 -7 0 -15 -9 -18
-20 -3 -11 -12 -20 -21 -20 -9 0 -16 -8 -16 -20 0 -13 -7 -20 -20 -20 -11 0
-20 -7 -20 -15 0 -8 -7 -15 -15 -15 -8 0 -15 -9 -15 -20 0 -13 -7 -20 -20 -20
-11 0 -20 -7 -20 -15 0 -8 -7 -15 -16 -15 -9 0 -18 -9 -21 -20 -3 -11 -14 -20
-24 -20 -11 0 -19 -6 -19 -14 0 -8 -13 -17 -29 -21 -17 -3 -31 -14 -34 -26 -3
-11 -14 -19 -26 -19 -12 0 -21 -6 -21 -14 0 -8 -15 -17 -35 -20 -21 -4 -35
-13 -35 -21 0 -10 -11 -15 -35 -15 -28 0 -35 -4 -35 -20 0 -16 -7 -20 -35 -20
-23 0 -35 -5 -35 -14 0 -8 -16 -16 -40 -20 -26 -4 -40 -11 -40 -21 0 -11 -11
-15 -40 -15 -28 0 -40 -4 -40 -14 0 -11 -19 -17 -70 -22 -46 -4 -70 -11 -70
-19 0 -9 -27 -14 -91 -17 -64 -3 -93 -8 -99 -19 -8 -11 -49 -15 -217 -17 -189
-3 -209 -2 -220 15 -11 14 -32 18 -113 21 -77 3 -100 8 -100 18 0 9 -11 14
-29 14 -49 0 -91 12 -91 26 0 8 -10 14 -24 14 -45 0 -86 13 -86 26 0 9 -12 14
-35 14 -23 0 -35 5 -35 14 0 8 -15 17 -35 20 -21 4 -35 13 -35 21 0 10 -11 15
-36 15 -27 0 -37 5 -41 20 -3 11 -14 20 -24 20 -11 0 -19 7 -19 15 0 8 -14 17
-35 21 -20 3 -35 12 -35 20 0 8 -9 14 -20 14 -13 0 -20 7 -20 20 0 13 -7 20
-20 20 -11 0 -20 6 -20 14 0 8 -13 17 -29 21 -17 3 -31 14 -34 26 -3 10 -12
19 -21 19 -9 0 -16 7 -16 15 0 8 -9 15 -20 15 -13 0 -20 7 -20 20 0 11 -7 20
-15 20 -8 0 -17 14 -21 35 -4 25 -11 35 -25 35 -11 0 -19 7 -19 15 0 8 -7 15
-15 15 -8 0 -15 9 -15 20 0 12 -7 20 -16 20 -9 0 -18 9 -21 20 -3 11 -11 20
-18 20 -7 0 -16 16 -19 35 -4 21 -13 35 -21 35 -10 0 -15 11 -15 34 0 25 -5
35 -20 39 -15 4 -20 14 -20 41 0 25 -5 36 -15 36 -8 0 -17 14 -21 35 -3 20
-12 35 -20 35 -10 0 -14 13 -14 40 0 27 -4 40 -14 40 -16 0 -26 30 -26 78 0
21 -5 32 -14 32 -10 0 -16 20 -21 70 -5 47 -11 70 -20 70 -9 0 -14 25 -17 90
-2 67 -7 93 -18 100 -13 8 -15 58 -18 332 -3 290 -1 324 13 335 13 9 18 35 22
112 4 71 10 101 18 101 8 0 15 26 20 75 5 55 11 75 21 75 10 0 14 12 14 40 0
27 4 40 14 40 15 0 26 30 26 73 0 16 5 27 14 27 9 0 17 15 21 40 4 25 12 40
21 40 9 0 14 12 14 35 0 28 4 35 20 35 16 0 20 7 20 35 0 25 4 35 16 35 9 0
18 9 21 20 3 11 11 20 18 20 7 0 16 16 19 35 4 21 13 35 21 35 8 0 15 9 15 20
0 12 7 20 16 20 9 0 18 9 21 20 3 11 12 20 19 20 8 0 14 9 14 20 0 13 7 20 20
20 11 0 20 6 20 14 0 7 9 16 20 19 11 3 20 12 20 21 0 9 7 16 15 16 8 0 15 9
15 20 0 13 7 20 20 20 12 0 20 7 20 16 0 9 9 18 20 21 11 3 20 11 20 18 0 7
16 16 35 19 21 4 35 13 35 21 0 8 9 15 20 15 13 0 20 7 20 20 0 16 7 20 35 20
24 0 35 5 35 15 0 8 9 15 20 15 13 0 20 7 20 20 0 16 7 20 35 20 24 0 35 5 35
15 0 10 14 17 40 21 24 4 40 12 40 20 0 9 12 14 35 14 23 0 35 5 35 14 0 16
30 26 78 26 20 0 32 5 32 14 0 15 43 26 106 26 32 0 44 4 44 15 0 13 43 15
330 15 287 0 330 -2 330 -15z"/>
<path d="M17770 8595 c0 -13 -21 -15 -126 -15 -117 0 -126 -1 -131 -20 -5 -18
-14 -20 -74 -20 -55 0 -69 -3 -69 -15 0 -9 -9 -15 -24 -15 -45 0 -86 -13 -86
-26 0 -10 -15 -14 -55 -14 -48 0 -55 -2 -55 -20 0 -17 -7 -20 -40 -20 -27 0
-40 -4 -40 -14 0 -7 -9 -16 -20 -19 -11 -3 -20 -12 -20 -21 0 -12 -10 -16 -35
-16 -28 0 -35 -4 -35 -20 0 -16 -7 -20 -35 -20 -23 0 -35 -5 -35 -14 0 -7 -9
-16 -20 -19 -11 -3 -20 -12 -20 -21 0 -12 -10 -16 -35 -16 -28 0 -35 -4 -35
-20 0 -13 -7 -20 -20 -20 -11 0 -20 -7 -20 -15 0 -8 -7 -15 -16 -15 -9 0 -18
-9 -21 -20 -3 -11 -12 -20 -19 -20 -8 0 -14 -9 -14 -20 0 -13 -7 -20 -20 -20
-13 0 -20 -7 -20 -20 0 -13 -7 -20 -20 -20 -11 0 -20 -7 -20 -15 0 -11 -12
-15 -50 -15 l-50 0 0 200 0 200 -595 0 c-522 0 -595 -2 -595 -15 0 -8 -7 -15
-15 -15 -13 0 -15 -314 -15 -2765 l0 -2765 610 0 610 0 0 1545 c0 1367 2 1545
15 1545 13 0 15 31 15 220 0 213 1 220 20 220 19 0 20 7 20 95 0 88 1 95 20
95 18 0 20 7 20 70 0 56 3 70 15 70 12 0 15 13 15 55 0 48 2 55 20 55 17 0 20
7 20 40 0 33 3 40 20 40 16 0 20 7 20 35 0 24 5 35 15 35 8 0 15 9 15 20 0 13
7 20 20 20 16 0 20 7 20 35 0 28 4 35 20 35 13 0 20 7 20 20 0 13 7 20 20 20
11 0 20 7 20 15 0 8 7 15 15 15 8 0 15 9 15 20 0 16 7 20 35 20 28 0 35 4 35
20 0 13 7 20 20 20 13 0 20 7 20 20 0 13 7 20 20 20 11 0 20 7 20 15 0 10 11
15 35 15 28 0 35 4 35 20 0 17 7 20 40 20 33 0 40 3 40 20 0 18 7 20 55 20 40
0 55 4 55 14 0 14 66 26 143 26 26 0 37 4 37 15 0 13 33 15 240 15 207 0 240
-2 240 -15 0 -11 11 -15 38 -15 76 0 142 -12 142 -26 0 -10 15 -14 55 -14 48
0 55 -2 55 -20 0 -16 7 -20 35 -20 25 0 35 -4 35 -16 0 -9 9 -18 20 -21 11 -3
20 -12 20 -19 0 -9 12 -14 35 -14 28 0 35 -4 35 -20 0 -13 7 -20 20 -20 13 0
20 -7 20 -20 0 -13 7 -20 20 -20 16 0 20 -7 20 -35 0 -23 5 -35 14 -35 7 0 16
-9 19 -20 3 -11 12 -20 20 -20 8 0 17 -9 20 -20 3 -11 12 -20 21 -20 12 0 16
-10 16 -35 0 -24 5 -35 15 -35 10 0 15 -11 15 -35 0 -28 4 -35 20 -35 18 0 20
-7 20 -55 0 -48 2 -55 20 -55 18 0 20 -7 20 -75 0 -60 3 -75 15 -75 11 0 15
-11 15 -37 0 -77 12 -143 26 -143 11 0 14 -36 14 -185 0 -178 1 -185 20 -185
20 0 20 -7 20 -1620 l0 -1620 605 0 605 0 0 1513 c0 1627 4 1947 27 1947 9 0
13 16 13 58 0 94 11 162 26 162 11 0 14 18 14 75 0 68 2 75 20 75 18 0 20 7
20 55 0 40 4 55 14 55 13 0 26 41 26 86 0 15 6 24 15 24 8 0 15 9 15 20 0 13
7 20 20 20 16 0 20 7 20 35 0 23 5 35 14 35 7 0 16 9 19 20 3 11 12 20 21 20
9 0 16 6 16 14 0 7 9 16 20 19 11 3 20 12 20 21 0 9 7 16 15 16 8 0 15 7 15
16 0 9 9 18 20 21 11 3 20 11 20 18 0 7 9 15 20 18 11 3 20 12 20 21 0 9 8 16
20 16 13 0 20 7 20 20 0 16 7 20 35 20 24 0 35 5 35 15 0 10 11 15 35 15 28 0
35 4 35 20 0 17 7 20 40 20 33 0 40 3 40 20 0 18 7 20 55 20 40 0 55 4 55 14
0 14 60 26 136 26 32 0 44 4 44 15 0 13 31 15 220 15 189 0 220 -2 220 -15 0
-11 12 -15 44 -15 76 0 136 -12 136 -26 0 -10 15 -14 55 -14 48 0 55 -2 55
-20 0 -17 7 -20 40 -20 33 0 40 -3 40 -20 0 -11 7 -20 15 -20 8 0 15 -7 15
-15 0 -8 9 -15 20 -15 13 0 20 -7 20 -20 0 -16 7 -20 34 -20 25 0 35 -5 39
-20 3 -11 12 -20 21 -20 12 0 16 -10 16 -35 0 -28 4 -35 20 -35 13 0 20 -7 20
-20 0 -11 7 -20 15 -20 8 0 17 -14 21 -35 3 -20 12 -35 20 -35 8 0 14 -9 14
-20 0 -13 7 -20 20 -20 18 0 20 -7 20 -55 0 -48 2 -55 20 -55 18 0 20 -7 20
-55 0 -42 3 -55 15 -55 12 0 15 -15 15 -71 0 -62 2 -71 20 -76 18 -5 20 -14
20 -94 0 -69 3 -89 14 -89 20 0 26 -47 26 -216 0 -130 2 -154 15 -154 13 0 15
-184 15 -1600 l0 -1600 610 0 610 0 0 1674 c0 1665 0 1674 -20 1679 -19 5 -20
14 -20 166 0 136 -2 161 -15 161 -12 0 -15 16 -15 84 0 101 -8 146 -26 146
-11 0 -14 17 -14 70 0 63 -2 70 -20 70 -18 0 -20 7 -20 55 0 42 -3 55 -15 55
-12 0 -15 13 -15 55 0 48 -2 55 -20 55 -18 0 -20 7 -20 54 0 45 -3 54 -20 59
-15 4 -20 14 -20 41 0 25 -4 36 -15 36 -10 0 -15 11 -15 35 0 28 -4 35 -20 35
-16 0 -20 7 -20 36 0 27 -5 37 -20 41 -15 4 -20 14 -20 39 0 24 -5 34 -15 34
-8 0 -15 7 -15 16 0 9 -9 18 -20 21 -15 4 -20 14 -20 39 0 27 -4 34 -20 34
-13 0 -20 7 -20 20 0 11 -7 20 -15 20 -8 0 -15 7 -15 15 0 8 -9 15 -20 15 -13
0 -20 7 -20 20 0 13 -7 20 -20 20 -16 0 -20 7 -20 35 0 24 -5 35 -15 35 -8 0
-15 7 -15 16 0 9 -9 18 -20 21 -11 3 -20 12 -20 20 0 8 -9 17 -20 20 -11 3
-20 12 -20 19 0 8 -7 14 -16 14 -9 0 -18 9 -21 20 -3 11 -11 20 -18 20 -7 0
-15 9 -18 20 -4 15 -14 20 -36 20 -21 0 -31 5 -31 15 0 8 -9 15 -20 15 -13 0
-20 7 -20 20 0 13 -7 20 -20 20 -13 0 -20 7 -20 20 0 13 -7 20 -20 20 -11 0
-20 6 -20 14 0 8 -15 17 -35 20 -21 4 -35 13 -35 21 0 8 -9 15 -20 15 -13 0
-20 7 -20 20 0 16 -7 20 -35 20 -23 0 -35 5 -35 14 0 8 -15 17 -35 20 -21 4
-35 13 -35 21 0 11 -12 15 -40 15 -33 0 -40 3 -40 20 0 16 -7 20 -35 20 -23 0
-35 5 -35 14 0 8 -15 17 -35 20 -21 4 -35 13 -35 21 0 11 -13 15 -54 15 -45 0
-54 3 -59 20 -4 15 -14 20 -41 20 -25 0 -36 4 -36 15 0 11 -12 15 -44 15 -63
0 -106 11 -106 26 0 11 -20 14 -89 14 -80 0 -89 2 -94 20 -5 19 -14 20 -166
20 -136 0 -161 2 -161 15 0 12 -17 15 -95 15 -78 0 -95 -3 -95 -15 0 -13 -27
-15 -181 -15 -172 0 -181 -1 -186 -20 -5 -18 -14 -20 -74 -20 -53 0 -69 -3
-69 -14 0 -10 -20 -16 -75 -21 -54 -5 -75 -11 -75 -21 0 -9 -12 -14 -36 -14
-27 0 -37 -5 -41 -20 -5 -17 -14 -20 -59 -20 -41 0 -54 -4 -54 -15 0 -8 -14
-17 -35 -21 -20 -3 -35 -12 -35 -20 0 -9 -12 -14 -35 -14 -28 0 -35 -4 -35
-20 0 -17 -7 -20 -40 -20 -28 0 -40 -4 -40 -15 0 -8 -14 -17 -35 -21 -19 -3
-35 -12 -35 -19 0 -7 -9 -15 -20 -18 -11 -3 -20 -12 -20 -21 0 -12 -10 -16
-35 -16 -28 0 -35 -4 -35 -20 0 -13 -7 -20 -20 -20 -11 0 -20 -7 -20 -15 0 -8
-7 -15 -16 -15 -9 0 -18 -9 -21 -20 -4 -15 -14 -20 -39 -20 -27 0 -34 -4 -34
-20 0 -11 -7 -20 -15 -20 -8 0 -15 -7 -15 -15 0 -8 -9 -15 -20 -15 -13 0 -20
-7 -20 -20 0 -13 -7 -20 -20 -20 -13 0 -20 -7 -20 -20 0 -13 -7 -20 -20 -20
-11 0 -20 -7 -20 -15 0 -8 -7 -15 -15 -15 -8 0 -15 -9 -15 -20 0 -13 -7 -20
-20 -20 -13 0 -20 -7 -20 -20 0 -17 -7 -20 -50 -20 -39 0 -50 3 -50 16 0 9 -9
18 -20 21 -11 3 -20 12 -20 20 0 8 -9 17 -20 20 -11 3 -20 12 -20 19 0 8 -7
14 -15 14 -8 0 -15 7 -15 16 0 9 -9 18 -20 21 -11 3 -20 12 -20 20 0 8 -9 17
-20 20 -11 3 -20 11 -20 18 0 7 -9 15 -20 18 -11 3 -20 12 -20 21 0 9 -7 16
-15 16 -8 0 -15 7 -15 16 0 9 -9 18 -20 21 -11 3 -20 12 -20 19 0 8 -9 14 -20
14 -13 0 -20 7 -20 20 0 16 -7 20 -35 20 -28 0 -35 4 -35 20 0 13 -7 20 -20
20 -11 0 -20 6 -20 14 0 8 -15 17 -35 20 -21 4 -35 13 -35 21 0 10 -11 15 -34
15 -25 0 -35 5 -39 20 -4 15 -14 20 -41 20 -25 0 -36 5 -36 15 0 8 -14 17 -35
21 -20 3 -35 12 -35 20 0 9 -12 14 -34 14 -25 0 -35 5 -39 20 -4 15 -14 20
-41 20 -24 0 -36 5 -36 14 0 9 -21 15 -70 20 -51 5 -70 11 -70 22 0 11 -14 14
-60 14 -53 0 -60 2 -60 20 0 19 -7 20 -165 20 -140 0 -165 2 -165 15 0 12 -15
15 -75 15 -60 0 -75 -3 -75 -15z"/>
<path d="M27010 8595 c0 -13 -23 -15 -145 -15 -138 0 -145 -1 -145 -20 0 -19
-7 -20 -95 -20 -74 0 -95 -3 -95 -14 0 -16 -30 -26 -77 -26 -23 0 -33 -5 -33
-15 0 -12 -13 -15 -55 -15 -48 0 -55 -2 -55 -20 0 -16 -7 -20 -35 -20 -24 0
-35 -5 -35 -15 0 -9 -9 -15 -24 -15 -45 0 -86 -13 -86 -26 0 -9 -12 -14 -36
-14 -27 0 -37 -5 -41 -20 -4 -15 -14 -20 -39 -20 -23 0 -34 -5 -34 -15 0 -10
-14 -17 -40 -21 -24 -4 -40 -12 -40 -20 0 -9 -11 -14 -31 -14 -22 0 -32 -5
-36 -20 -3 -11 -12 -20 -19 -20 -8 0 -17 -7 -20 -15 -3 -8 -21 -17 -40 -21
-19 -3 -34 -12 -34 -19 0 -7 -9 -15 -20 -18 -11 -3 -20 -12 -20 -21 0 -12 -10
-16 -35 -16 -28 0 -35 -4 -35 -20 0 -13 -7 -20 -20 -20 -11 0 -20 -7 -20 -15
0 -8 -7 -15 -15 -15 -8 0 -15 -9 -15 -20 0 -13 -7 -20 -20 -20 -13 0 -20 -7
-20 -20 0 -16 -7 -20 -35 -20 -23 0 -35 -5 -35 -14 0 -7 -9 -16 -20 -19 -11
-3 -20 -12 -20 -20 0 -8 -9 -17 -20 -20 -11 -3 -20 -12 -20 -21 0 -9 -7 -16
-15 -16 -8 0 -15 -6 -15 -14 0 -7 -9 -16 -20 -19 -11 -3 -20 -12 -20 -20 0 -8
-9 -17 -20 -20 -11 -3 -20 -12 -20 -21 0 -9 -7 -16 -15 -16 -8 0 -15 -7 -15
-15 0 -8 -7 -15 -16 -15 -9 0 -18 -9 -21 -19 -3 -11 -13 -21 -24 -24 -14 -4
-19 -14 -19 -36 0 -21 -5 -31 -15 -31 -8 0 -15 -9 -15 -20 0 -13 -7 -20 -20
-20 -13 0 -20 -7 -20 -20 0 -13 -7 -20 -20 -20 -13 0 -20 -7 -20 -20 0 -11 -6
-20 -14 -20 -8 0 -17 -15 -20 -35 -4 -21 -13 -35 -21 -35 -8 0 -15 -6 -15 -14
0 -7 -9 -16 -20 -19 -15 -4 -20 -14 -20 -41 0 -26 -4 -36 -16 -36 -9 0 -18 -9
-21 -20 -3 -11 -12 -20 -19 -20 -9 0 -14 -12 -14 -35 0 -28 -4 -35 -20 -35
-16 0 -20 -7 -20 -35 0 -24 -5 -35 -15 -35 -8 0 -15 -9 -15 -20 0 -13 -7 -20
-20 -20 -18 0 -20 -7 -20 -55 0 -48 -2 -55 -20 -55 -16 0 -20 -7 -20 -35 0
-23 -5 -35 -14 -35 -9 0 -17 -15 -21 -40 -4 -25 -12 -40 -21 -40 -10 0 -14
-14 -14 -55 0 -48 -2 -55 -20 -55 -18 0 -20 -7 -20 -55 0 -40 -4 -55 -14 -55
-15 0 -26 -43 -26 -106 0 -32 -4 -44 -15 -44 -12 0 -15 -14 -15 -69 0 -60 -2
-69 -20 -74 -18 -5 -20 -14 -20 -111 0 -82 -3 -106 -13 -106 -18 0 -27 -148
-27 -431 0 -277 9 -419 27 -419 10 0 13 -25 13 -111 0 -102 2 -111 20 -116 18
-5 20 -14 20 -74 0 -55 3 -69 15 -69 12 0 15 -13 15 -55 0 -48 2 -55 20 -55
18 0 20 -7 20 -56 0 -47 3 -57 20 -61 17 -5 20 -14 20 -59 0 -39 4 -54 14 -54
9 0 16 -18 21 -55 4 -38 11 -55 21 -55 9 0 14 -11 14 -31 0 -22 5 -32 20 -36
15 -4 20 -14 20 -39 0 -23 5 -34 15 -34 10 0 17 -14 21 -40 4 -24 12 -40 20
-40 9 0 14 -12 14 -35 0 -28 4 -35 20 -35 16 0 20 -7 20 -35 0 -24 5 -35 15
-35 8 0 15 -7 15 -16 0 -9 9 -18 20 -21 15 -4 20 -14 20 -39 0 -27 4 -34 20
-34 13 0 20 -7 20 -20 0 -11 7 -20 15 -20 8 0 17 -14 21 -35 3 -20 12 -35 20
-35 8 0 14 -9 14 -20 0 -13 7 -20 20 -20 13 0 20 -7 20 -20 0 -13 7 -20 20
-20 13 0 20 -7 20 -20 0 -11 7 -20 15 -20 10 0 15 -10 15 -31 0 -22 5 -32 20
-36 11 -3 20 -11 20 -18 0 -7 9 -15 20 -18 11 -3 20 -12 20 -21 0 -9 7 -16 15
-16 8 0 15 -7 15 -16 0 -9 9 -18 20 -21 11 -3 20 -12 20 -20 0 -8 9 -17 20
-20 11 -3 20 -12 20 -19 0 -8 6 -14 14 -14 7 0 16 -9 19 -20 3 -11 12 -20 20
-20 8 0 17 -9 20 -20 3 -11 12 -20 21 -20 9 0 16 -7 16 -15 0 -8 6 -15 14 -15
7 0 16 -9 19 -20 4 -15 14 -20 41 -20 29 0 36 -4 36 -20 0 -11 7 -20 15 -20 8
0 15 -7 15 -15 0 -8 9 -15 20 -15 13 0 20 -7 20 -20 0 -13 7 -20 20 -20 11 0
20 -7 20 -15 0 -8 14 -17 35 -21 20 -3 35 -12 35 -20 0 -8 9 -14 20 -14 13 0
20 -7 20 -20 0 -16 7 -20 34 -20 25 0 35 -5 39 -20 4 -15 14 -20 36 -20 21 0
31 -5 31 -15 0 -11 11 -15 40 -15 33 0 40 -3 40 -20 0 -16 7 -20 34 -20 25 0
35 -5 39 -20 4 -15 14 -20 41 -20 24 0 36 -5 36 -14 0 -8 15 -17 35 -20 21 -4
35 -13 35 -21 0 -11 13 -15 54 -15 45 0 54 -3 59 -20 4 -15 14 -20 36 -20 21
0 31 -5 31 -15 0 -11 13 -15 53 -15 66 0 97 -9 97 -26 0 -11 18 -14 75 -14 68
0 75 -2 75 -20 0 -19 7 -20 110 -20 91 0 110 -3 110 -15 0 -13 48 -15 370 -15
322 0 370 2 370 15 0 12 19 15 110 15 103 0 110 1 110 20 0 18 7 20 89 20 80
0 89 2 94 20 4 17 14 20 61 20 43 0 56 3 56 15 0 11 12 15 51 15 42 0 52 3 56
20 4 15 14 20 39 20 24 0 34 5 34 15 0 10 11 15 35 15 28 0 35 4 35 20 0 18 7
20 55 20 48 0 55 2 55 20 0 17 7 20 40 20 33 0 40 3 40 20 0 16 7 20 35 20 24
0 35 5 35 15 0 8 7 15 16 15 9 0 18 9 21 20 4 15 14 20 39 20 27 0 34 4 34 20
0 16 7 20 35 20 24 0 35 5 35 15 0 8 9 15 20 15 13 0 20 7 20 20 0 13 7 20 20
20 13 0 20 7 20 20 0 16 7 20 35 20 24 0 35 5 35 15 0 8 7 15 16 15 9 0 18 9
21 20 3 11 14 20 24 20 12 0 19 7 19 20 0 11 7 20 15 20 8 0 15 6 15 14 0 9
15 17 40 21 25 4 40 12 40 21 0 8 7 14 15 14 8 0 15 9 15 20 0 13 7 20 20 20
13 0 20 7 20 20 0 13 7 20 20 20 11 0 20 7 20 15 0 8 7 15 15 15 8 0 15 9 15
20 0 13 7 20 20 20 13 0 20 7 20 20 0 13 7 20 20 20 16 0 20 7 20 35 0 24 5
35 15 35 8 0 15 7 15 15 0 8 9 15 20 15 13 0 20 7 20 19 0 10 9 21 20 24 11 3
20 12 20 21 0 9 6 16 14 16 8 0 17 15 20 35 4 21 13 35 21 35 8 0 15 9 15 20
0 13 7 20 20 20 13 0 20 7 20 20 0 11 7 20 15 20 8 0 15 7 15 15 0 8 9 15 20
15 17 0 20 7 20 40 0 33 3 40 20 40 11 0 20 7 20 15 0 8 6 15 14 15 9 0 17 15
21 40 4 25 12 40 21 40 9 0 14 12 14 35 0 28 4 35 20 35 13 0 20 7 20 20 0 18
-7 20 -54 20 -45 0 -54 3 -59 20 -4 17 -14 20 -55 20 -41 0 -51 3 -55 20 -4
15 -14 20 -36 20 -21 0 -31 5 -31 15 0 11 -11 15 -40 15 -33 0 -40 3 -40 20 0
16 -7 20 -35 20 -23 0 -35 5 -35 14 0 13 -41 26 -86 26 -15 0 -24 6 -24 15 0
11 -11 15 -40 15 -33 0 -40 3 -40 20 0 16 -7 20 -35 20 -23 0 -35 5 -35 14 0
13 -41 26 -86 26 -15 0 -24 6 -24 15 0 12 -13 15 -55 15 -48 0 -55 2 -55 20 0
16 -7 20 -34 20 -25 0 -35 5 -39 20 -7 26 -37 26 -44 0 -3 -11 -12 -20 -19
-20 -9 0 -14 -12 -14 -35 0 -28 -4 -35 -20 -35 -13 0 -20 -7 -20 -20 0 -11 -6
-20 -14 -20 -8 0 -17 -15 -20 -35 -4 -21 -13 -35 -21 -35 -8 0 -15 -9 -15 -20
0 -13 -7 -20 -20 -20 -13 0 -20 -7 -20 -20 0 -13 -7 -20 -20 -20 -16 0 -20 -7
-20 -35 0 -24 -5 -35 -15 -35 -8 0 -15 -9 -15 -20 0 -13 -7 -20 -20 -20 -11 0
-20 -7 -20 -15 0 -10 -11 -15 -35 -15 -28 0 -35 -4 -35 -20 0 -13 -7 -20 -20
-20 -13 0 -20 -7 -20 -20 0 -13 -7 -20 -20 -20 -13 0 -20 -7 -20 -20 0 -13 -7
-20 -20 -20 -11 0 -20 -7 -20 -15 0 -10 -10 -15 -31 -15 -22 0 -32 -5 -36 -20
-3 -11 -14 -20 -24 -20 -11 0 -19 -7 -19 -15 0 -8 -14 -17 -35 -21 -20 -3 -35
-12 -35 -20 0 -9 -12 -14 -35 -14 -28 0 -35 -4 -35 -20 0 -17 -7 -20 -40 -20
-27 0 -40 -4 -40 -14 0 -16 -30 -26 -77 -26 -23 0 -33 -5 -33 -15 0 -11 -11
-15 -39 -15 -59 0 -101 -11 -101 -26 0 -11 -21 -14 -95 -14 -88 0 -95 -1 -95
-20 0 -20 -7 -20 -271 -20 -262 0 -271 1 -276 20 -5 18 -14 20 -114 20 -86 0
-109 3 -109 14 0 15 -42 26 -101 26 -27 0 -39 4 -39 14 0 9 -15 17 -40 21 -25
4 -40 12 -40 21 0 9 -11 14 -34 14 -25 0 -35 5 -39 20 -4 15 -14 20 -36 20
-20 0 -31 5 -31 14 0 8 -16 16 -40 20 -26 4 -40 11 -40 21 0 8 -7 15 -15 15
-8 0 -15 7 -15 16 0 9 -9 18 -20 21 -11 3 -20 11 -20 18 0 7 -16 16 -35 19
-21 4 -35 13 -35 21 0 8 -9 15 -20 15 -13 0 -20 7 -20 20 0 13 -7 20 -20 20
-13 0 -20 7 -20 20 0 11 -7 20 -15 20 -8 0 -15 7 -15 15 0 8 -9 15 -20 15 -16
0 -20 7 -20 36 0 27 -5 37 -20 41 -11 3 -20 12 -20 19 0 8 -9 14 -20 14 -13 0
-20 7 -20 20 0 11 -7 20 -15 20 -10 0 -15 11 -15 35 0 28 -4 35 -20 35 -16 0
-20 7 -20 36 0 27 -5 37 -20 41 -15 4 -20 14 -20 39 0 24 -5 34 -15 34 -10 0
-15 11 -15 35 0 28 -4 35 -20 35 -18 0 -20 7 -20 55 0 48 -2 55 -20 55 -18 0
-20 7 -20 55 0 40 -4 55 -14 55 -13 0 -26 41 -26 86 0 15 -6 24 -15 24 -12 0
-15 15 -15 75 l0 75 2115 0 2115 0 0 315 c0 273 -2 315 -15 315 -12 0 -15 14
-15 63 0 124 -12 227 -26 227 -11 0 -14 24 -14 110 0 103 -1 110 -20 110 -19
0 -20 7 -20 95 0 74 -3 95 -14 95 -16 0 -26 30 -26 78 0 22 -5 32 -15 32 -11
0 -15 12 -15 51 0 42 -3 52 -20 56 -17 5 -20 14 -20 59 0 47 -2 54 -20 54 -16
0 -20 7 -20 35 0 24 -5 35 -15 35 -11 0 -15 11 -15 36 0 27 -5 37 -20 41 -17
5 -20 14 -20 59 0 41 -4 54 -15 54 -8 0 -17 14 -21 35 -3 19 -12 35 -19 35 -7
0 -15 9 -18 20 -3 11 -12 20 -21 20 -12 0 -16 10 -16 35 0 28 -4 35 -20 35
-17 0 -20 7 -20 40 0 29 -4 40 -15 40 -10 0 -15 10 -15 31 0 22 -5 32 -19 36
-11 3 -21 13 -24 24 -3 10 -12 19 -21 19 -9 0 -16 7 -16 15 0 8 -7 15 -15 15
-11 0 -15 11 -15 36 0 27 -5 37 -20 41 -11 3 -20 12 -20 19 0 8 -9 14 -20 14
-13 0 -20 7 -20 20 0 11 -6 20 -14 20 -7 0 -16 9 -19 20 -3 11 -12 20 -21 20
-9 0 -16 7 -16 15 0 8 -9 15 -20 15 -17 0 -20 7 -20 40 0 29 -4 40 -15 40 -8
0 -15 7 -15 15 0 8 -9 15 -20 15 -13 0 -20 7 -20 20 0 16 -7 20 -34 20 -25 0
-35 5 -39 20 -3 11 -12 20 -21 20 -9 0 -16 7 -16 15 0 8 -9 15 -20 15 -13 0
-20 7 -20 20 0 11 -6 20 -14 20 -7 0 -16 9 -19 20 -3 11 -12 20 -21 20 -9 0
-16 7 -16 15 0 8 -9 15 -20 15 -13 0 -20 7 -20 20 0 16 -7 20 -35 20 -25 0
-35 4 -35 16 0 9 -9 18 -20 21 -11 3 -20 11 -20 18 0 7 -16 16 -35 19 -21 4
-35 13 -35 21 0 8 -8 15 -19 15 -10 0 -21 9 -24 20 -4 15 -14 20 -36 20 -20 0
-31 5 -31 14 0 9 -15 17 -40 21 -25 4 -40 12 -40 21 0 9 -12 14 -35 14 -28 0
-35 4 -35 20 0 16 -7 20 -35 20 -23 0 -35 5 -35 14 0 8 -16 16 -40 20 -26 4
-40 11 -40 21 0 11 -13 15 -55 15 -48 0 -55 2 -55 20 0 18 -7 20 -55 20 -42 0
-55 3 -55 15 0 9 -9 15 -24 15 -45 0 -86 13 -86 26 0 11 -20 14 -89 14 -80 0
-89 2 -94 20 -5 19 -14 20 -151 20 -123 0 -146 2 -146 15 0 13 -27 15 -185 15
-158 0 -185 -2 -185 -15z m479 -1104 c6 -8 35 -15 80 -19 51 -3 71 -9 71 -18
0 -8 10 -14 24 -14 45 0 86 -13 86 -26 0 -9 12 -14 35 -14 23 0 35 -5 35 -14
0 -9 15 -17 40 -21 25 -4 40 -12 40 -21 0 -8 7 -14 16 -14 9 0 18 -9 21 -20 4
-15 14 -20 39 -20 27 0 34 -4 34 -20 0 -13 7 -20 20 -20 11 0 20 -6 20 -14 0
-8 14 -17 30 -21 17 -4 30 -13 30 -21 0 -8 9 -14 20 -14 13 0 20 -7 20 -20 0
-13 7 -20 20 -20 13 0 20 -7 20 -20 0 -13 7 -20 20 -20 11 0 20 -7 20 -15 0
-8 7 -15 15 -15 8 0 15 -9 15 -20 0 -13 7 -20 20 -20 16 0 20 -7 20 -35 0 -28
4 -35 20 -35 13 0 20 -7 20 -20 0 -11 7 -20 15 -20 8 0 17 -14 21 -35 3 -20
12 -35 20 -35 8 0 14 -9 14 -20 0 -11 7 -20 15 -20 8 0 17 -14 21 -35 3 -19
12 -35 19 -35 8 0 16 -17 20 -40 4 -25 12 -40 21 -40 9 0 14 -11 14 -34 0 -25
5 -35 20 -39 17 -4 20 -14 20 -56 0 -44 3 -51 20 -51 17 0 20 -7 20 -40 0 -27
4 -40 14 -40 9 0 15 -16 19 -47 3 -27 11 -50 21 -55 12 -7 16 -24 16 -63 0
-42 4 -55 15 -55 8 0 15 -7 15 -15 0 -8 -7 -15 -15 -15 -8 0 -15 -9 -15 -20 0
-20 -7 -20 -1475 -20 l-1475 0 0 58 c0 94 11 162 26 162 10 0 14 15 14 55 0
40 4 55 14 55 13 0 26 41 26 86 0 14 6 24 14 24 8 0 17 15 20 35 4 21 13 35
21 35 11 0 15 12 15 40 0 33 3 40 20 40 16 0 20 7 20 35 0 24 5 35 15 35 8 0
15 9 15 20 0 13 7 20 20 20 16 0 20 7 20 35 0 25 4 35 16 35 9 0 18 9 21 20 3
11 12 20 19 20 8 0 14 9 14 20 0 13 7 20 20 20 16 0 20 7 20 35 0 28 4 35 20
35 13 0 20 7 20 20 0 13 7 20 20 20 13 0 20 7 20 20 0 11 7 20 15 20 8 0 15 7
15 15 0 8 9 15 20 15 13 0 20 7 20 20 0 13 7 20 20 20 11 0 20 7 20 15 0 8 14
17 35 21 20 3 35 12 35 20 0 8 7 14 16 14 9 0 18 9 21 20 4 15 14 20 39 20 27
0 34 4 34 20 0 16 7 20 35 20 23 0 35 5 35 14 0 8 15 17 35 20 21 4 35 13 35
21 0 11 12 15 40 15 27 0 40 4 40 14 0 16 30 26 78 26 22 0 32 5 32 15 0 11
12 15 44 15 64 0 106 11 106 27 0 20 536 15 549 -6z"/>
<path d="M32420 8595 c0 -13 -25 -15 -161 -15 -152 0 -161 -1 -166 -20 -5 -18
-14 -20 -79 -20 -56 0 -74 -3 -74 -14 0 -16 -30 -26 -77 -26 -23 0 -33 -5 -33
-15 0 -11 -12 -15 -51 -15 -42 0 -52 -3 -56 -20 -4 -15 -14 -20 -39 -20 -23 0
-34 -5 -34 -15 0 -10 -14 -17 -40 -21 -24 -4 -40 -12 -40 -20 0 -9 -11 -14
-31 -14 -22 0 -32 -5 -36 -20 -3 -11 -14 -20 -24 -20 -11 0 -19 -7 -19 -15 0
-10 -10 -15 -31 -15 -22 0 -32 -5 -36 -20 -4 -15 -14 -20 -39 -20 -27 0 -34
-4 -34 -20 0 -13 -7 -20 -20 -20 -13 0 -20 -7 -20 -20 0 -13 -7 -20 -20 -20
-11 0 -20 -7 -20 -15 0 -8 -7 -15 -15 -15 -8 0 -15 -9 -15 -20 0 -17 -7 -20
-40 -20 -39 0 -40 -1 -40 -35 0 -24 -5 -35 -15 -35 -8 0 -15 -9 -15 -20 0 -13
-7 -20 -20 -20 -13 0 -20 -7 -20 -20 0 -13 -7 -20 -20 -20 -11 0 -20 -6 -20
-14 0 -7 -9 -16 -20 -19 -11 -3 -20 -12 -20 -21 0 -9 -7 -16 -15 -16 -8 0 -15
-9 -15 -20 0 -13 -7 -20 -20 -20 -11 0 -20 -7 -20 -15 0 -8 -6 -15 -14 -15 -8
0 -16 -16 -20 -40 -4 -26 -11 -40 -21 -40 -10 0 -15 -11 -15 -35 0 -28 -4 -35
-20 -35 -13 0 -20 -7 -20 -20 0 -11 -6 -20 -14 -20 -13 0 -26 -41 -26 -86 0
-15 -6 -24 -15 -24 -10 0 -15 -10 -15 -34 0 -25 -5 -35 -20 -39 -17 -4 -20
-14 -20 -56 0 -36 -4 -51 -14 -51 -13 0 -26 -77 -26 -156 0 -24 -5 -34 -15
-34 -13 0 -15 -33 -15 -240 0 -207 2 -240 15 -240 11 0 15 -12 15 -44 0 -63
11 -106 26 -106 10 0 14 -14 14 -51 0 -42 3 -52 20 -56 17 -5 20 -14 20 -59 0
-41 4 -54 15 -54 8 0 17 -14 21 -35 3 -20 12 -35 20 -35 8 0 14 -9 14 -20 0
-13 7 -20 20 -20 16 0 20 -7 20 -35 0 -24 5 -35 15 -35 8 0 15 -7 15 -16 0 -9
9 -18 20 -21 15 -4 20 -14 20 -39 0 -27 4 -34 20 -34 13 0 20 -7 20 -20 0 -13
7 -20 20 -20 13 0 20 -7 20 -20 0 -11 7 -20 15 -20 8 0 15 -7 15 -15 0 -8 9
-15 20 -15 13 0 20 -7 20 -20 0 -13 7 -20 20 -20 13 0 20 -7 20 -20 0 -11 7
-20 15 -20 8 0 15 -7 15 -15 0 -11 11 -15 36 -15 27 0 37 -5 41 -20 3 -11 11
-20 18 -20 7 0 15 -9 18 -20 3 -11 12 -20 21 -20 9 0 16 -7 16 -15 0 -10 10
-15 34 -15 25 0 35 -5 39 -20 4 -15 14 -20 41 -20 29 0 36 -4 36 -20 0 -11 7
-20 15 -20 8 0 15 -7 15 -15 0 -11 11 -15 40 -15 33 0 40 -3 40 -20 0 -16 7
-20 34 -20 25 0 35 -5 39 -20 4 -17 14 -20 55 -20 41 0 51 -3 55 -20 4 -14 14
-20 35 -20 17 0 32 -6 36 -15 3 -9 19 -15 41 -15 28 0 35 -4 35 -20 0 -18 7
-20 55 -20 42 0 55 -3 55 -15 0 -10 11 -15 35 -15 28 0 35 -4 35 -20 0 -18 7
-20 54 -20 45 0 54 -3 59 -20 4 -15 14 -20 41 -20 25 0 36 -4 36 -15 0 -9 9
-15 24 -15 45 0 86 -13 86 -26 0 -10 15 -14 55 -14 48 0 55 -2 55 -20 0 -16 7
-20 35 -20 23 0 35 -5 35 -14 0 -13 41 -26 86 -26 15 0 24 -6 24 -15 0 -10 10
-15 34 -15 25 0 35 -5 39 -20 4 -15 14 -20 41 -20 24 0 36 -5 36 -14 0 -8 15
-17 35 -20 21 -4 35 -13 35 -21 0 -11 12 -15 40 -15 33 0 40 -3 40 -20 0 -16
7 -20 35 -20 25 0 35 -4 35 -16 0 -9 9 -18 20 -21 11 -3 20 -12 20 -19 0 -8 7
-14 15 -14 8 0 15 -7 15 -16 0 -9 9 -18 20 -21 11 -3 20 -14 20 -24 0 -12 7
-19 20 -19 16 0 20 -7 20 -35 0 -24 5 -35 14 -35 10 0 16 -20 21 -75 5 -54 11
-75 21 -75 11 0 14 -17 14 -70 0 -54 -3 -70 -14 -70 -11 0 -16 -22 -22 -90 -5
-66 -10 -90 -20 -90 -10 0 -14 -13 -14 -40 0 -33 -3 -40 -20 -40 -16 0 -20 -7
-20 -34 0 -25 -5 -35 -20 -39 -11 -3 -20 -12 -20 -21 0 -9 -7 -16 -15 -16 -8
0 -15 -7 -15 -16 0 -9 -9 -18 -20 -21 -11 -3 -20 -11 -20 -18 0 -7 -9 -15 -20
-18 -11 -3 -20 -12 -20 -21 0 -9 -7 -16 -15 -16 -8 0 -15 -6 -15 -14 0 -7 -9
-16 -20 -19 -11 -3 -20 -12 -20 -21 0 -10 -9 -16 -24 -16 -45 0 -86 -13 -86
-26 0 -10 -15 -14 -55 -14 -48 0 -55 -2 -55 -20 0 -19 -7 -20 -255 -20 -248 0
-255 1 -255 20 0 18 -7 20 -55 20 -40 0 -55 4 -55 14 0 13 -41 26 -86 26 -15
0 -24 6 -24 15 0 8 -9 15 -20 15 -13 0 -20 7 -20 20 0 16 -7 20 -35 20 -25 0
-35 4 -35 16 0 9 -9 18 -20 21 -11 3 -20 12 -20 20 0 8 -9 17 -20 20 -11 3
-20 12 -20 19 0 8 -7 14 -15 14 -8 0 -15 7 -15 16 0 9 -9 18 -20 21 -11 3 -20
12 -20 20 0 8 -9 17 -20 20 -15 4 -20 14 -20 39 0 24 -5 34 -15 34 -8 0 -15 7
-15 16 0 9 -9 18 -20 21 -11 3 -20 12 -20 19 0 8 -9 14 -20 14 -17 0 -20 7
-20 40 0 28 -4 40 -15 40 -8 0 -17 14 -21 35 -3 20 -12 35 -20 35 -8 0 -14 7
-14 16 0 9 -9 18 -20 21 -15 4 -20 14 -20 39 0 23 -5 34 -15 34 -8 0 -17 14
-21 35 -3 19 -12 35 -20 35 -8 0 -14 15 -16 38 l-3 37 -53 3 c-47 3 -54 1 -59
-17 -4 -16 -13 -21 -39 -21 -27 0 -34 -4 -34 -20 0 -18 -7 -20 -55 -20 -42 0
-55 -3 -55 -15 0 -11 -11 -15 -36 -15 -27 0 -37 -5 -41 -20 -4 -16 -14 -20
-53 -20 -39 0 -49 -4 -53 -20 -4 -15 -14 -20 -41 -20 -25 0 -36 -4 -36 -15 0
-9 -9 -15 -24 -15 -45 0 -86 -13 -86 -26 0 -9 -12 -14 -35 -14 -28 0 -35 -4
-35 -20 0 -17 -7 -20 -40 -20 -29 0 -40 -4 -40 -15 0 -9 -9 -15 -24 -15 -45 0
-86 -13 -86 -26 0 -9 -12 -14 -35 -14 l-35 0 0 -56 c0 -47 3 -57 20 -61 15 -4
20 -14 20 -39 0 -24 5 -34 15 -34 9 0 15 -9 15 -24 0 -45 13 -86 26 -86 9 0
14 -12 14 -34 0 -25 5 -35 20 -39 15 -4 20 -14 20 -41 0 -25 5 -36 15 -36 8 0
17 -14 21 -35 3 -20 12 -35 20 -35 8 0 14 -9 14 -20 0 -13 7 -20 20 -20 16 0
20 -7 20 -35 0 -24 5 -35 15 -35 8 0 15 -7 15 -16 0 -9 9 -18 20 -21 15 -4 20
-14 20 -39 0 -27 4 -34 20 -34 13 0 20 -7 20 -20 0 -11 7 -20 15 -20 8 0 17
-14 21 -35 3 -20 12 -35 20 -35 8 0 14 -9 14 -20 0 -13 7 -20 20 -20 13 0 20
-7 20 -20 0 -11 7 -20 15 -20 8 0 15 -7 15 -15 0 -8 9 -15 20 -15 13 0 20 -7
20 -20 0 -13 7 -20 20 -20 13 0 20 -7 20 -20 0 -11 7 -20 15 -20 8 0 15 -7 15
-15 0 -8 9 -15 20 -15 13 0 20 -7 20 -20 0 -13 7 -20 20 -20 13 0 20 -7 20
-20 0 -13 7 -20 20 -20 11 0 20 -7 20 -15 0 -8 7 -15 15 -15 8 0 15 -9 15 -20
0 -13 7 -20 19 -20 10 0 21 -9 24 -20 3 -11 12 -20 21 -20 9 0 16 -7 16 -15 0
-10 11 -15 35 -15 28 0 35 -4 35 -20 0 -16 7 -20 34 -20 25 0 35 -5 39 -20 4
-15 14 -20 41 -20 29 0 36 -4 36 -20 0 -11 6 -20 14 -20 8 0 16 -7 20 -15 4
-11 20 -15 55 -15 40 0 50 -3 54 -20 4 -15 14 -20 41 -20 25 0 36 -4 36 -15 0
-12 13 -15 55 -15 48 0 55 -2 55 -20 0 -18 7 -20 54 -20 45 0 54 -3 59 -20 5
-18 14 -20 111 -20 88 0 106 -3 106 -15 0 -13 42 -15 315 -15 273 0 315 2 315
15 0 12 18 15 106 15 97 0 106 2 111 20 5 17 14 20 59 20 47 0 54 2 54 20 0
18 7 20 55 20 42 0 55 3 55 15 0 12 13 15 55 15 48 0 55 2 55 20 0 17 7 20 40
20 28 0 40 4 40 15 0 8 14 17 35 21 20 3 35 12 35 20 0 9 12 14 35 14 28 0 35
4 35 20 0 13 7 20 20 20 13 0 20 7 20 20 0 16 7 20 35 20 24 0 35 5 35 15 0 8
9 15 20 15 13 0 20 7 20 20 0 16 7 20 35 20 28 0 35 4 35 20 0 13 7 20 20 20
11 0 20 7 20 15 0 8 7 15 16 15 9 0 18 9 21 20 3 11 12 20 20 20 8 0 17 9 20
20 3 11 12 20 19 20 8 0 14 7 14 15 0 8 9 15 20 15 13 0 20 7 20 20 0 12 7 20
16 20 9 0 18 9 21 20 3 11 12 20 19 20 8 0 14 7 14 15 0 8 7 15 16 15 9 0 18
9 21 20 3 11 12 20 20 20 8 0 17 9 20 20 3 11 12 20 19 20 8 0 14 9 14 20 0
13 7 20 20 20 16 0 20 7 20 35 0 28 4 35 20 35 16 0 20 7 20 35 0 24 5 35 15
35 8 0 15 9 15 20 0 13 7 20 20 20 16 0 20 7 20 34 0 25 5 35 20 39 15 4 20
14 20 41 0 25 4 36 15 36 11 0 15 12 15 51 0 42 3 52 20 56 17 5 20 14 20 59
0 47 2 54 20 54 18 0 20 7 20 55 0 42 3 55 15 55 13 0 15 21 15 126 0 117 1
126 20 131 18 5 20 14 20 114 0 102 -1 109 -20 109 -19 0 -20 7 -20 110 0 91
-3 110 -15 110 -12 0 -15 15 -15 71 0 62 -2 71 -20 76 -15 4 -20 14 -20 39 0
27 -4 34 -20 34 -17 0 -20 7 -20 40 0 29 -4 40 -15 40 -10 0 -15 10 -15 31 0
22 -5 32 -20 36 -15 4 -20 14 -20 39 0 27 -4 34 -20 34 -13 0 -20 7 -20 20 0
11 -6 20 -14 20 -7 0 -16 9 -19 20 -3 11 -12 20 -21 20 -12 0 -16 10 -16 35 0
28 -4 35 -20 35 -13 0 -20 7 -20 20 0 11 -7 20 -15 20 -8 0 -15 7 -15 15 0 8
-9 15 -20 15 -13 0 -20 7 -20 20 0 16 -7 20 -34 20 -25 0 -35 5 -39 20 -3 11
-12 20 -20 20 -8 0 -17 9 -20 20 -3 11 -12 20 -21 20 -9 0 -16 7 -16 15 0 8
-9 15 -20 15 -13 0 -20 7 -20 20 0 16 -7 20 -35 20 -24 0 -35 5 -35 15 0 8 -7
15 -16 15 -9 0 -18 9 -21 20 -4 15 -14 20 -39 20 -27 0 -34 4 -34 20 0 16 -7
20 -35 20 -23 0 -35 5 -35 14 0 9 -15 17 -40 21 -25 4 -40 12 -40 21 0 9 -12
14 -35 14 -28 0 -35 4 -35 20 0 16 -7 20 -35 20 -23 0 -35 5 -35 14 0 9 -15
17 -40 21 -25 4 -40 12 -40 21 0 9 -12 14 -35 14 -28 0 -35 4 -35 20 0 18 -7
20 -55 20 -40 0 -55 4 -55 14 0 13 -41 26 -86 26 -15 0 -24 6 -24 15 0 10 -10
15 -34 15 -25 0 -35 5 -39 20 -4 17 -14 20 -61 20 -49 0 -56 2 -56 20 0 18 -7
20 -55 20 -42 0 -55 3 -55 15 0 10 -11 15 -35 15 -28 0 -35 4 -35 20 0 18 -7
20 -54 20 -45 0 -54 3 -59 20 -4 15 -14 20 -36 20 -21 0 -31 5 -31 15 0 11
-11 15 -40 15 -33 0 -40 3 -40 20 0 18 -7 20 -55 20 -48 0 -55 2 -55 20 0 16
-7 20 -35 20 -24 0 -35 5 -35 15 0 10 -10 15 -34 15 -25 0 -35 5 -39 20 -4 15
-14 20 -41 20 -29 0 -36 4 -36 20 0 16 -7 20 -35 20 -25 0 -35 4 -35 16 0 9
-9 18 -20 21 -11 3 -20 12 -20 19 0 8 -9 14 -20 14 -13 0 -20 7 -20 20 0 11
-7 20 -15 20 -10 0 -15 11 -15 35 0 28 -4 35 -20 35 -18 0 -20 7 -20 75 0 68
-2 75 -20 75 -18 0 -20 7 -20 70 0 63 2 70 20 70 18 0 20 7 20 74 0 65 2 74
20 79 15 4 20 14 20 36 0 21 5 31 15 31 11 0 15 11 15 36 0 27 5 37 20 41 11
3 20 11 20 18 0 7 9 15 20 18 11 3 20 12 20 21 0 9 6 16 14 16 7 0 16 9 19 20
4 15 14 20 41 20 25 0 36 5 36 15 0 8 14 17 35 21 20 3 35 12 35 20 0 10 15
14 55 14 48 0 55 2 55 20 0 19 7 20 236 20 227 0 236 -1 241 -20 5 -18 14 -20
73 -20 59 0 68 -2 73 -20 4 -15 14 -20 41 -20 25 0 36 -4 36 -15 0 -8 6 -15
14 -15 7 0 16 -9 19 -20 4 -15 14 -20 41 -20 29 0 36 -4 36 -20 0 -11 7 -20
15 -20 8 0 15 -7 15 -15 0 -8 9 -15 20 -15 13 0 20 -7 20 -20 0 -13 7 -20 20
-20 13 0 20 -7 20 -20 0 -11 6 -20 14 -20 7 0 16 -9 19 -20 3 -11 12 -20 21
-20 9 0 16 -7 16 -15 0 -8 9 -15 20 -15 17 0 20 -7 20 -40 0 -28 4 -40 14 -40
8 0 16 -7 20 -15 3 -8 12 -15 21 -15 10 0 15 -10 15 -34 0 -31 3 -34 36 -41
49 -9 114 3 114 21 0 8 9 14 20 14 13 0 20 7 20 20 0 16 7 20 35 20 23 0 35 5
35 14 0 13 41 26 86 26 14 0 24 6 24 14 0 9 15 17 40 21 25 4 40 12 40 21 0 9
12 14 35 14 28 0 35 4 35 20 0 16 7 20 35 20 24 0 35 5 35 15 0 8 9 15 20 15
13 0 20 7 20 20 0 17 7 20 40 20 33 0 40 3 40 20 0 16 7 20 35 20 24 0 35 5
35 15 0 10 11 15 35 15 28 0 35 4 35 20 0 16 7 20 36 20 27 0 37 5 41 20 3 11
12 20 19 20 10 0 14 13 14 40 0 29 -4 40 -15 40 -10 0 -15 10 -15 31 0 22 -5
32 -20 36 -11 3 -20 12 -20 20 0 8 -9 17 -20 20 -15 4 -20 14 -20 39 0 24 -5
34 -15 34 -8 0 -15 7 -15 16 0 9 -9 18 -20 21 -15 4 -20 14 -20 39 0 27 -4 34
-20 34 -13 0 -20 7 -20 20 0 11 -7 20 -15 20 -8 0 -15 7 -15 15 0 8 -9 15 -20
15 -13 0 -20 7 -20 20 0 13 -7 20 -20 20 -16 0 -20 7 -20 35 0 24 -5 35 -15
35 -8 0 -15 7 -15 16 0 9 -9 18 -20 21 -11 3 -20 12 -20 20 0 8 -9 17 -20 20
-11 3 -20 11 -20 18 0 7 -9 15 -20 18 -11 3 -20 12 -20 21 0 9 -7 16 -15 16
-8 0 -15 7 -15 16 0 9 -9 18 -20 21 -11 3 -20 11 -20 18 0 7 -16 16 -35 19
-21 4 -35 13 -35 21 0 8 -9 15 -20 15 -13 0 -20 7 -20 20 0 16 -7 20 -34 20
-25 0 -35 5 -39 20 -3 11 -12 20 -21 20 -9 0 -16 7 -16 15 0 10 -10 15 -34 15
-25 0 -35 5 -39 20 -4 15 -14 20 -41 20 -24 0 -36 5 -36 14 0 8 -15 17 -35 20
-21 4 -35 13 -35 21 0 10 -11 15 -34 15 -25 0 -35 5 -39 20 -4 15 -14 20 -41
20 -25 0 -36 4 -36 15 0 10 -10 15 -32 15 -48 0 -78 10 -78 26 0 11 -20 14
-89 14 -80 0 -89 2 -94 20 -5 19 -14 20 -151 20 -123 0 -146 2 -146 15 0 12
-15 15 -75 15 -60 0 -75 -3 -75 -15z"/>
</g>
</svg>
